<svg width="21" height="18" viewBox="0 0 21 18" fill="none" xmlns="http://www.w3.org/2000/svg">
<path d="M19.5 0C19.7652 0 20.0196 0.105357 20.2071 0.292893C20.3946 0.48043 20.5 0.734784 20.5 1V17C20.5 17.2652 20.3946 17.5196 20.2071 17.7071C20.0196 17.8946 19.7652 18 19.5 18H1.5C1.23478 18 0.98043 17.8946 0.792893 17.7071C0.605357 17.5196 0.5 17.2652 0.5 17V1C0.5 0.734784 0.605357 0.48043 0.792893 0.292893C0.98043 0.105357 1.23478 0 1.5 0H19.5ZM7.899 5H5.899L2.699 13H4.853L5.253 12H8.543L8.943 13H11.098L7.899 5ZM17.5 5H15.5V7H14.5C13.7191 6.99925 12.9687 7.30302 12.4082 7.84677C11.8477 8.39052 11.5213 9.13139 11.4984 9.91196C11.4755 10.6925 11.7578 11.4513 12.2855 12.027C12.8131 12.6027 13.5444 12.9499 14.324 12.995L14.5 13H17.5V5ZM15.5 9V11H14.5L14.383 10.993C14.14 10.9641 13.9159 10.847 13.7534 10.664C13.5909 10.481 13.5011 10.2448 13.5011 10C13.5011 9.75524 13.5909 9.51897 13.7534 9.33597C13.9159 9.15296 14.14 9.03591 14.383 9.007L14.5 9H15.5ZM6.899 7.885L7.744 10H6.052L6.899 7.885Z" fill="#F4F4F4"/>
</svg>
