<svg width="25" height="26" viewBox="0 0 25 26" fill="none" xmlns="http://www.w3.org/2000/svg">
<circle cx="12.5" cy="12.7727" r="12.5" fill="#CF2E8B"/>
<path d="M11.6048 14.7367L11.3808 7.07273H13.5728L13.3328 14.7367H11.6048ZM12.5168 18.3847C12.1328 18.3847 11.8181 18.2674 11.5728 18.0327C11.3381 17.7981 11.2208 17.5154 11.2208 17.1847C11.2208 16.8434 11.3381 16.5554 11.5728 16.3207C11.8181 16.0861 12.1328 15.9687 12.5168 15.9687C12.8795 15.9687 13.1781 16.0861 13.4128 16.3207C13.6581 16.5554 13.7808 16.8434 13.7808 17.1847C13.7808 17.5154 13.6581 17.7981 13.4128 18.0327C13.1781 18.2674 12.8795 18.3847 12.5168 18.3847Z" fill="white"/>
</svg>
