<svg width="23" height="20" viewBox="0 0 23 20" fill="none" xmlns="http://www.w3.org/2000/svg">
<path d="M20.5 14V2H2.5V14H20.5ZM20.5 0C21.0304 0 21.5391 0.210714 21.9142 0.585786C22.2893 0.960859 22.5 1.46957 22.5 2V14C22.5 14.5304 22.2893 15.0391 21.9142 15.4142C21.5391 15.7893 21.0304 16 20.5 16H13.5V18H15.5V20H7.5V18H9.5V16H2.5C1.96957 16 1.46086 15.7893 1.08579 15.4142C0.710714 15.0391 0.5 14.5304 0.5 14V2C0.5 0.89 1.39 0 2.5 0H20.5ZM4.5 4H13.5V9H4.5V4ZM14.5 4H18.5V6H14.5V4ZM18.5 7V12H14.5V7H18.5ZM4.5 10H8.5V12H4.5V10ZM9.5 10H13.5V12H9.5V10Z" fill="#F4F4F4"/>
</svg>
