<svg width="21" height="22" viewBox="0 0 21 22" fill="none" xmlns="http://www.w3.org/2000/svg">
<path d="M10.5 0.875C8.49747 0.875 6.5399 1.46882 4.87486 2.58137C3.20981 3.69392 1.91206 5.27523 1.14572 7.12533C0.379387 8.97543 0.178878 11.0112 0.569554 12.9753C0.960229 14.9393 1.92454 16.7435 3.34055 18.1595C4.75656 19.5755 6.56066 20.5398 8.52471 20.9305C10.4888 21.3211 12.5246 21.1206 14.3747 20.3543C16.2248 19.5879 17.8061 18.2902 18.9186 16.6251C20.0312 14.9601 20.625 13.0025 20.625 11C20.6225 8.31544 19.555 5.74155 17.6567 3.84329C15.7585 1.94502 13.1846 0.877482 10.5 0.875ZM10.5 18.875C8.94248 18.875 7.41993 18.4131 6.12489 17.5478C4.82985 16.6825 3.82049 15.4526 3.22445 14.0136C2.62841 12.5747 2.47246 10.9913 2.77632 9.46366C3.08018 7.93606 3.8302 6.53287 4.93154 5.43153C6.03288 4.3302 7.43607 3.58017 8.96367 3.27632C10.4913 2.97246 12.0747 3.12841 13.5136 3.72445C14.9526 4.32049 16.1825 5.32985 17.0478 6.62488C17.9131 7.91992 18.375 9.44247 18.375 11C18.3725 13.0878 17.542 15.0894 16.0657 16.5657C14.5894 18.042 12.5878 18.8725 10.5 18.875ZM14.625 12.875C14.6225 13.6699 14.3057 14.4315 13.7436 14.9936C13.1815 15.5557 12.4199 15.8725 11.625 15.875V16.25C11.625 16.5484 11.5065 16.8345 11.2955 17.0455C11.0845 17.2565 10.7984 17.375 10.5 17.375C10.2016 17.375 9.91549 17.2565 9.70451 17.0455C9.49353 16.8345 9.375 16.5484 9.375 16.25V15.875H8.25C7.95164 15.875 7.66549 15.7565 7.45451 15.5455C7.24353 15.3345 7.125 15.0484 7.125 14.75C7.125 14.4516 7.24353 14.1655 7.45451 13.9545C7.66549 13.7435 7.95164 13.625 8.25 13.625H11.625C11.8239 13.625 12.0147 13.546 12.1553 13.4053C12.296 13.2647 12.375 13.0739 12.375 12.875C12.375 12.6761 12.296 12.4853 12.1553 12.3447C12.0147 12.204 11.8239 12.125 11.625 12.125H9.375C8.57936 12.125 7.81629 11.8089 7.25368 11.2463C6.69107 10.6837 6.375 9.92065 6.375 9.125C6.375 8.32935 6.69107 7.56629 7.25368 7.00368C7.81629 6.44107 8.57936 6.125 9.375 6.125V5.75C9.375 5.45163 9.49353 5.16548 9.70451 4.9545C9.91549 4.74353 10.2016 4.625 10.5 4.625C10.7984 4.625 11.0845 4.74353 11.2955 4.9545C11.5065 5.16548 11.625 5.45163 11.625 5.75V6.125H12.75C13.0484 6.125 13.3345 6.24353 13.5455 6.4545C13.7565 6.66548 13.875 6.95163 13.875 7.25C13.875 7.54837 13.7565 7.83452 13.5455 8.0455C13.3345 8.25647 13.0484 8.375 12.75 8.375H9.375C9.17609 8.375 8.98533 8.45402 8.84467 8.59467C8.70402 8.73532 8.625 8.92609 8.625 9.125C8.625 9.32391 8.70402 9.51468 8.84467 9.65533C8.98533 9.79598 9.17609 9.875 9.375 9.875H11.625C12.4199 9.87747 13.1815 10.1943 13.7436 10.7564C14.3057 11.3185 14.6225 12.0801 14.625 12.875Z" fill="#F4F4F4"/>
</svg>
