<svg width="459" height="139" viewBox="0 0 459 139" fill="none" xmlns="http://www.w3.org/2000/svg">
<rect x="34.6687" y="106.376" width="105.117" height="422.688" rx="11.8442" transform="rotate(-90 34.6687 106.376)" stroke="#D9D9D9" stroke-width="1.48052"/>
<path d="M64.3227 123.626C63.8963 123.626 63.5114 123.552 63.1679 123.404C62.8244 123.25 62.5491 123.034 62.3418 122.756C62.1404 122.477 62.0398 122.154 62.0398 121.787C62.0398 121.408 62.1375 121.077 62.3329 120.792C62.5343 120.508 62.7978 120.304 63.1235 120.179C62.8392 120.055 62.6142 119.877 62.4484 119.646C62.2826 119.41 62.1997 119.146 62.1997 118.856C62.1997 118.56 62.2796 118.287 62.4395 118.039C62.5994 117.784 62.8363 117.58 63.1502 117.426C63.47 117.272 63.8608 117.195 64.3227 117.195C64.7847 117.195 65.1725 117.272 65.4864 117.426C65.8003 117.58 66.0372 117.784 66.1971 118.039C66.357 118.287 66.4369 118.56 66.4369 118.856C66.4369 119.14 66.351 119.404 66.1793 119.646C66.0135 119.883 65.7914 120.061 65.5131 120.179C65.8447 120.304 66.1082 120.508 66.3037 120.792C66.4991 121.077 66.5968 121.408 66.5968 121.787C66.5968 122.154 66.4961 122.477 66.2948 122.756C66.0934 123.034 65.8181 123.25 65.4687 123.404C65.1252 123.552 64.7432 123.626 64.3227 123.626ZM64.3227 119.842C64.6307 119.842 64.8735 119.762 65.0511 119.602C65.2288 119.442 65.3176 119.238 65.3176 118.989C65.3176 118.717 65.2288 118.504 65.0511 118.35C64.8794 118.196 64.6366 118.119 64.3227 118.119C64.0029 118.119 63.7572 118.196 63.5854 118.35C63.4137 118.504 63.3278 118.717 63.3278 118.989C63.3278 119.244 63.4137 119.451 63.5854 119.611C63.7631 119.765 64.0089 119.842 64.3227 119.842ZM64.3227 122.676C64.7017 122.676 64.989 122.584 65.1844 122.4C65.3798 122.211 65.4775 121.974 65.4775 121.69C65.4775 121.376 65.3739 121.13 65.1666 120.952C64.9653 120.775 64.684 120.686 64.3227 120.686C63.9615 120.686 63.6743 120.775 63.4611 120.952C63.2538 121.13 63.1502 121.376 63.1502 121.69C63.1502 121.974 63.2479 122.211 63.4433 122.4C63.6447 122.584 63.9378 122.676 64.3227 122.676Z" fill="#D9D9D9"/>
<path d="M92.4377 123.626C92.0054 123.626 91.6412 123.543 91.3451 123.377C91.049 123.206 90.8181 122.984 90.6522 122.711C90.4864 122.439 90.3887 122.146 90.3591 121.832H91.4162C91.4636 122.104 91.5761 122.314 91.7537 122.462C91.9373 122.61 92.1683 122.685 92.4466 122.685C92.8434 122.685 93.1632 122.504 93.406 122.143C93.6488 121.775 93.7791 121.219 93.7969 120.473C93.6547 120.715 93.4386 120.917 93.1484 121.077C92.8641 121.237 92.5503 121.317 92.2068 121.317C91.8633 121.317 91.5405 121.234 91.2385 121.068C90.9365 120.902 90.6907 120.668 90.5012 120.366C90.3117 120.064 90.217 119.709 90.217 119.3C90.217 118.927 90.3088 118.581 90.4923 118.261C90.6759 117.941 90.9306 117.683 91.2563 117.488C91.582 117.292 91.964 117.195 92.4022 117.195C92.8701 117.195 93.2639 117.281 93.5837 117.452C93.9035 117.624 94.1581 117.855 94.3476 118.145C94.543 118.435 94.6822 118.758 94.7651 119.114C94.8539 119.469 94.8984 119.833 94.8984 120.206C94.8984 120.899 94.8006 121.503 94.6052 122.018C94.4157 122.528 94.1344 122.924 93.7613 123.209C93.3942 123.487 92.953 123.626 92.4377 123.626ZM92.4733 120.357C92.6924 120.357 92.8908 120.31 93.0684 120.215C93.2461 120.114 93.3853 119.984 93.4859 119.824C93.5866 119.658 93.637 119.475 93.637 119.273C93.637 118.954 93.5244 118.69 93.2994 118.483C93.0803 118.276 92.8019 118.172 92.4644 118.172C92.1328 118.172 91.8574 118.276 91.6383 118.483C91.4191 118.684 91.3096 118.942 91.3096 119.256C91.3096 119.587 91.4191 119.854 91.6383 120.055C91.8574 120.256 92.1357 120.357 92.4733 120.357Z" fill="#D9D9D9"/>
<path d="M119.328 123.52V118.598L118.307 118.838V117.968L119.808 117.301H120.51V123.52H119.328ZM124.265 123.626C123.69 123.626 123.199 123.493 122.79 123.226C122.381 122.954 122.065 122.578 121.84 122.098C121.62 121.613 121.511 121.05 121.511 120.41C121.511 119.777 121.62 119.217 121.84 118.732C122.065 118.246 122.381 117.87 122.79 117.603C123.199 117.331 123.69 117.195 124.265 117.195C124.839 117.195 125.331 117.331 125.739 117.603C126.148 117.87 126.462 118.246 126.681 118.732C126.906 119.217 127.018 119.777 127.018 120.41C127.018 121.05 126.906 121.613 126.681 122.098C126.462 122.578 126.148 122.954 125.739 123.226C125.331 123.493 124.839 123.626 124.265 123.626ZM124.265 122.605C124.733 122.605 125.115 122.409 125.411 122.018C125.707 121.627 125.855 121.091 125.855 120.41C125.855 119.729 125.707 119.193 125.411 118.803C125.115 118.412 124.733 118.216 124.265 118.216C123.791 118.216 123.406 118.412 123.11 118.803C122.82 119.193 122.675 119.729 122.675 120.41C122.675 121.091 122.82 121.627 123.11 122.018C123.406 122.409 123.791 122.605 124.265 122.605Z" fill="#D9D9D9"/>
<path d="M151.658 123.52V118.598L150.637 118.838V117.968L152.138 117.301H152.84V123.52H151.658ZM154.72 123.52V118.598L153.699 118.838V117.968L155.2 117.301H155.902V123.52H154.72Z" fill="#D9D9D9"/>
<path d="M180.86 123.52V118.598L179.838 118.838V117.968L181.339 117.301H182.041V123.52H180.86ZM183.096 123.52V122.693C183.475 122.38 183.842 122.069 184.197 121.761C184.559 121.453 184.878 121.148 185.157 120.846C185.441 120.544 185.666 120.251 185.832 119.966C186.004 119.676 186.09 119.395 186.09 119.122C186.09 118.868 186.018 118.643 185.876 118.447C185.74 118.252 185.512 118.154 185.192 118.154C184.867 118.154 184.621 118.261 184.455 118.474C184.289 118.687 184.206 118.945 184.206 119.247H183.105C183.117 118.791 183.217 118.412 183.407 118.11C183.596 117.802 183.848 117.574 184.162 117.426C184.476 117.272 184.828 117.195 185.219 117.195C185.853 117.195 186.344 117.369 186.694 117.719C187.049 118.062 187.227 118.509 187.227 119.06C187.227 119.404 187.147 119.738 186.987 120.064C186.833 120.39 186.628 120.704 186.374 121.006C186.119 121.308 185.844 121.592 185.548 121.858C185.252 122.119 184.964 122.362 184.686 122.587H187.378V123.52H183.096Z" fill="#D9D9D9"/>
<path d="M211.959 123.52V118.598L210.938 118.838V117.968L212.439 117.301H213.141V123.52H211.959ZM216.38 123.626C215.972 123.626 215.602 123.555 215.27 123.413C214.938 123.265 214.672 123.04 214.471 122.738C214.269 122.436 214.163 122.057 214.151 121.601H215.27C215.276 121.903 215.374 122.157 215.563 122.365C215.759 122.566 216.031 122.667 216.38 122.667C216.712 122.667 216.967 122.575 217.144 122.391C217.322 122.208 217.411 121.977 217.411 121.698C217.411 121.373 217.292 121.127 217.056 120.961C216.825 120.789 216.526 120.704 216.158 120.704H215.696V119.771H216.167C216.469 119.771 216.721 119.7 216.922 119.558C217.124 119.416 217.224 119.205 217.224 118.927C217.224 118.696 217.147 118.512 216.993 118.376C216.845 118.234 216.638 118.163 216.372 118.163C216.081 118.163 215.853 118.249 215.688 118.421C215.528 118.592 215.439 118.803 215.421 119.051H214.311C214.334 118.477 214.533 118.024 214.906 117.692C215.285 117.361 215.773 117.195 216.372 117.195C216.798 117.195 217.156 117.272 217.446 117.426C217.743 117.574 217.965 117.772 218.113 118.021C218.267 118.27 218.344 118.545 218.344 118.847C218.344 119.196 218.246 119.493 218.051 119.735C217.861 119.972 217.624 120.132 217.34 120.215C217.689 120.286 217.974 120.458 218.193 120.73C218.412 120.997 218.521 121.334 218.521 121.743C218.521 122.086 218.438 122.4 218.273 122.685C218.107 122.969 217.864 123.197 217.544 123.369C217.23 123.54 216.842 123.626 216.38 123.626Z" fill="#D9D9D9"/>
<path d="M242.967 123.52V118.598L241.946 118.838V117.968L243.447 117.301H244.149V123.52H242.967ZM248.197 123.52V122.365H245.132V121.459L248.046 117.301H249.334V121.379H250.151V122.365H249.334V123.52H248.197ZM246.349 121.379H248.268V118.554L246.349 121.379Z" fill="#D9D9D9"/>
<path d="M274.266 123.52V118.598L273.245 118.838V117.968L274.746 117.301H275.448V123.52H274.266ZM278.883 123.626C278.427 123.626 278.033 123.546 277.702 123.386C277.376 123.226 277.118 123.007 276.929 122.729C276.745 122.445 276.639 122.125 276.609 121.77H277.719C277.773 122.024 277.903 122.237 278.11 122.409C278.317 122.575 278.575 122.658 278.883 122.658C279.215 122.658 279.484 122.536 279.691 122.294C279.905 122.051 280.011 121.749 280.011 121.388C280.011 121.014 279.905 120.718 279.691 120.499C279.484 120.28 279.221 120.171 278.901 120.171C278.634 120.171 278.403 120.236 278.208 120.366C278.012 120.496 277.873 120.659 277.79 120.855H276.698L277.231 117.301H280.677V118.296H278.084L277.799 119.735C277.93 119.593 278.107 119.478 278.332 119.389C278.557 119.294 278.809 119.247 279.087 119.247C279.531 119.247 279.902 119.347 280.198 119.549C280.494 119.744 280.719 120.005 280.873 120.33C281.027 120.65 281.104 121 281.104 121.379C281.104 121.811 281.009 122.196 280.82 122.534C280.636 122.871 280.375 123.138 280.038 123.333C279.706 123.528 279.321 123.626 278.883 123.626Z" fill="#D9D9D9"/>
<path d="M305.413 123.52V118.598L304.392 118.838V117.968L305.893 117.301H306.595V123.52H305.413ZM310.137 123.626C309.669 123.626 309.275 123.54 308.955 123.369C308.635 123.197 308.378 122.966 308.182 122.676C307.987 122.385 307.845 122.063 307.756 121.707C307.673 121.352 307.632 120.988 307.632 120.615C307.632 119.922 307.729 119.321 307.925 118.811C308.12 118.296 308.401 117.899 308.769 117.621C309.136 117.337 309.58 117.195 310.101 117.195C310.528 117.195 310.889 117.281 311.185 117.452C311.487 117.618 311.721 117.837 311.887 118.11C312.052 118.382 312.15 118.675 312.18 118.989H311.123C311.069 118.717 310.954 118.506 310.776 118.358C310.599 118.21 310.371 118.136 310.092 118.136C309.695 118.136 309.376 118.32 309.133 118.687C308.89 119.048 308.76 119.602 308.742 120.348C308.884 120.105 309.097 119.904 309.382 119.744C309.666 119.584 309.983 119.504 310.332 119.504C310.676 119.504 310.998 119.587 311.3 119.753C311.602 119.919 311.845 120.153 312.029 120.455C312.218 120.757 312.313 121.112 312.313 121.521C312.313 121.894 312.221 122.24 312.038 122.56C311.86 122.88 311.605 123.138 311.274 123.333C310.948 123.528 310.569 123.626 310.137 123.626ZM310.074 122.649C310.406 122.649 310.679 122.548 310.892 122.347C311.111 122.14 311.22 121.879 311.22 121.565C311.22 121.234 311.111 120.967 310.892 120.766C310.673 120.564 310.394 120.464 310.057 120.464C309.838 120.464 309.639 120.514 309.462 120.615C309.29 120.71 309.154 120.84 309.053 121.006C308.952 121.166 308.902 121.346 308.902 121.547C308.902 121.867 309.011 122.131 309.231 122.338C309.456 122.545 309.737 122.649 310.074 122.649Z" fill="#D9D9D9"/>
<path d="M336.563 123.52V118.598L335.542 118.838V117.968L337.043 117.301H337.745V123.52H336.563ZM339.306 123.52L341.651 118.27H338.586V117.301H342.824V118.11L340.487 123.52H339.306Z" fill="#D9D9D9"/>
<path d="M366.85 123.52V118.598L365.829 118.838V117.968L367.33 117.301H368.032V123.52H366.85ZM371.432 123.626C371.005 123.626 370.62 123.552 370.277 123.404C369.933 123.25 369.658 123.034 369.451 122.756C369.249 122.477 369.149 122.154 369.149 121.787C369.149 121.408 369.246 121.077 369.442 120.792C369.643 120.508 369.907 120.304 370.233 120.179C369.948 120.055 369.723 119.877 369.557 119.646C369.392 119.41 369.309 119.146 369.309 118.856C369.309 118.56 369.389 118.287 369.549 118.039C369.708 117.784 369.945 117.58 370.259 117.426C370.579 117.272 370.97 117.195 371.432 117.195C371.894 117.195 372.282 117.272 372.595 117.426C372.909 117.58 373.146 117.784 373.306 118.039C373.466 118.287 373.546 118.56 373.546 118.856C373.546 119.14 373.46 119.404 373.288 119.646C373.122 119.883 372.9 120.061 372.622 120.179C372.954 120.304 373.217 120.508 373.413 120.792C373.608 121.077 373.706 121.408 373.706 121.787C373.706 122.154 373.605 122.477 373.404 122.756C373.202 123.034 372.927 123.25 372.578 123.404C372.234 123.552 371.852 123.626 371.432 123.626ZM371.432 119.842C371.74 119.842 371.982 119.762 372.16 119.602C372.338 119.442 372.427 119.238 372.427 118.989C372.427 118.717 372.338 118.504 372.16 118.35C371.988 118.196 371.746 118.119 371.432 118.119C371.112 118.119 370.866 118.196 370.694 118.35C370.523 118.504 370.437 118.717 370.437 118.989C370.437 119.244 370.523 119.451 370.694 119.611C370.872 119.765 371.118 119.842 371.432 119.842ZM371.432 122.676C371.811 122.676 372.098 122.584 372.293 122.4C372.489 122.211 372.587 121.974 372.587 121.69C372.587 121.376 372.483 121.13 372.276 120.952C372.074 120.775 371.793 120.686 371.432 120.686C371.07 120.686 370.783 120.775 370.57 120.952C370.363 121.13 370.259 121.376 370.259 121.69C370.259 121.974 370.357 122.211 370.552 122.4C370.754 122.584 371.047 122.676 371.432 122.676Z" fill="#D9D9D9"/>
<path d="M398.037 123.52V118.598L397.015 118.838V117.968L398.516 117.301H399.218V123.52H398.037ZM402.547 123.626C402.114 123.626 401.75 123.543 401.454 123.377C401.158 123.206 400.927 122.984 400.761 122.711C400.595 122.439 400.498 122.146 400.468 121.832H401.525C401.573 122.104 401.685 122.314 401.863 122.462C402.046 122.61 402.277 122.685 402.556 122.685C402.952 122.685 403.272 122.504 403.515 122.143C403.758 121.775 403.888 121.219 403.906 120.473C403.764 120.715 403.548 120.917 403.257 121.077C402.973 121.237 402.659 121.317 402.316 121.317C401.972 121.317 401.65 121.234 401.348 121.068C401.045 120.902 400.8 120.668 400.61 120.366C400.421 120.064 400.326 119.709 400.326 119.3C400.326 118.927 400.418 118.581 400.601 118.261C400.785 117.941 401.04 117.683 401.365 117.488C401.691 117.292 402.073 117.195 402.511 117.195C402.979 117.195 403.373 117.281 403.693 117.452C404.012 117.624 404.267 117.855 404.457 118.145C404.652 118.435 404.791 118.758 404.874 119.114C404.963 119.469 405.007 119.833 405.007 120.206C405.007 120.899 404.91 121.503 404.714 122.018C404.525 122.528 404.243 122.924 403.87 123.209C403.503 123.487 403.062 123.626 402.547 123.626ZM402.582 120.357C402.801 120.357 403 120.31 403.177 120.215C403.355 120.114 403.494 119.984 403.595 119.824C403.696 119.658 403.746 119.475 403.746 119.273C403.746 118.954 403.633 118.69 403.408 118.483C403.189 118.276 402.911 118.172 402.573 118.172C402.242 118.172 401.966 118.276 401.747 118.483C401.528 118.684 401.419 118.942 401.419 119.256C401.419 119.587 401.528 119.854 401.747 120.055C401.966 120.256 402.245 120.357 402.582 120.357Z" fill="#D9D9D9"/>
<path d="M428.596 123.52V122.693C428.975 122.38 429.342 122.069 429.697 121.761C430.058 121.453 430.378 121.148 430.656 120.846C430.941 120.544 431.166 120.251 431.332 119.966C431.503 119.676 431.589 119.395 431.589 119.122C431.589 118.868 431.518 118.643 431.376 118.447C431.24 118.252 431.012 118.154 430.692 118.154C430.366 118.154 430.12 118.261 429.955 118.474C429.789 118.687 429.706 118.945 429.706 119.247H428.604C428.616 118.791 428.717 118.412 428.906 118.11C429.096 117.802 429.348 117.574 429.661 117.426C429.975 117.272 430.328 117.195 430.719 117.195C431.352 117.195 431.844 117.369 432.193 117.719C432.548 118.062 432.726 118.509 432.726 119.06C432.726 119.404 432.646 119.738 432.486 120.064C432.332 120.39 432.128 120.704 431.873 121.006C431.619 121.308 431.343 121.592 431.047 121.858C430.751 122.119 430.464 122.362 430.186 122.587H432.877V123.52H428.596ZM436.327 123.626C435.753 123.626 435.261 123.493 434.853 123.226C434.444 122.954 434.127 122.578 433.902 122.098C433.683 121.613 433.574 121.05 433.574 120.41C433.574 119.777 433.683 119.217 433.902 118.732C434.127 118.246 434.444 117.87 434.853 117.603C435.261 117.331 435.753 117.195 436.327 117.195C436.902 117.195 437.393 117.331 437.802 117.603C438.211 117.87 438.525 118.246 438.744 118.732C438.969 119.217 439.081 119.777 439.081 120.41C439.081 121.05 438.969 121.613 438.744 122.098C438.525 122.578 438.211 122.954 437.802 123.226C437.393 123.493 436.902 123.626 436.327 123.626ZM436.327 122.605C436.795 122.605 437.177 122.409 437.473 122.018C437.769 121.627 437.918 121.091 437.918 120.41C437.918 119.729 437.769 119.193 437.473 118.803C437.177 118.412 436.795 118.216 436.327 118.216C435.854 118.216 435.469 118.412 435.173 118.803C434.882 119.193 434.737 119.729 434.737 120.41C434.737 121.091 434.882 121.627 435.173 122.018C435.469 122.409 435.854 122.605 436.327 122.605Z" fill="#D9D9D9"/>
<path d="M233.35 135.364V129.146H234.7L236.681 133.09L238.635 129.146H239.986V135.364H238.849V131.073L237.116 134.475H236.219L234.487 131.073V135.364H233.35ZM242.685 135.47C242.305 135.47 241.995 135.411 241.752 135.293C241.509 135.168 241.328 135.005 241.21 134.804C241.091 134.603 241.032 134.381 241.032 134.138C241.032 133.729 241.192 133.398 241.512 133.143C241.832 132.888 242.311 132.761 242.951 132.761H244.07V132.654C244.07 132.352 243.984 132.13 243.813 131.988C243.641 131.846 243.428 131.775 243.173 131.775C242.942 131.775 242.741 131.831 242.569 131.944C242.397 132.05 242.291 132.21 242.249 132.423H241.139C241.168 132.104 241.275 131.825 241.459 131.588C241.648 131.352 241.891 131.171 242.187 131.047C242.483 130.916 242.815 130.851 243.182 130.851C243.81 130.851 244.304 131.008 244.665 131.322C245.027 131.636 245.207 132.08 245.207 132.654V135.364H244.239L244.132 134.653C244.002 134.89 243.819 135.085 243.582 135.239C243.351 135.393 243.052 135.47 242.685 135.47ZM242.942 134.582C243.268 134.582 243.52 134.475 243.697 134.262C243.881 134.049 243.996 133.786 244.044 133.472H243.075C242.773 133.472 242.557 133.528 242.427 133.64C242.297 133.747 242.231 133.88 242.231 134.04C242.231 134.212 242.297 134.345 242.427 134.44C242.557 134.535 242.729 134.582 242.942 134.582ZM246.292 135.364V130.958H247.305L247.412 131.784C247.572 131.5 247.788 131.275 248.06 131.109C248.338 130.937 248.664 130.851 249.037 130.851V132.05H248.717C248.469 132.05 248.247 132.089 248.051 132.166C247.856 132.243 247.702 132.376 247.589 132.566C247.483 132.755 247.429 133.019 247.429 133.356V135.364H246.292ZM251.895 135.47C251.445 135.47 251.048 135.373 250.705 135.177C250.361 134.982 250.089 134.709 249.887 134.36C249.692 134.011 249.594 133.611 249.594 133.161C249.594 132.711 249.692 132.311 249.887 131.962C250.089 131.612 250.361 131.34 250.705 131.144C251.048 130.949 251.445 130.851 251.895 130.851C252.458 130.851 252.931 130.999 253.316 131.295C253.701 131.585 253.947 131.988 254.054 132.503H252.854C252.795 132.29 252.677 132.124 252.499 132.006C252.327 131.882 252.123 131.819 251.886 131.819C251.572 131.819 251.306 131.938 251.087 132.175C250.867 132.412 250.758 132.74 250.758 133.161C250.758 133.581 250.867 133.91 251.087 134.147C251.306 134.384 251.572 134.502 251.886 134.502C252.123 134.502 252.327 134.443 252.499 134.324C252.677 134.206 252.795 134.037 252.854 133.818H254.054C253.947 134.316 253.701 134.715 253.316 135.017C252.931 135.319 252.458 135.47 251.895 135.47ZM255.063 135.364V128.968H256.2V131.633C256.348 131.39 256.546 131.201 256.795 131.064C257.05 130.922 257.34 130.851 257.665 130.851C258.21 130.851 258.631 131.023 258.927 131.366C259.229 131.71 259.38 132.213 259.38 132.876V135.364H258.252V132.983C258.252 132.604 258.175 132.314 258.021 132.113C257.873 131.911 257.636 131.811 257.31 131.811C256.99 131.811 256.724 131.923 256.511 132.148C256.303 132.373 256.2 132.687 256.2 133.09V135.364H255.063Z" fill="#D9D9D9"/>
<line x1="35.4089" y1="83.2436" x2="456.617" y2="83.2436" stroke="#D9D9D9" stroke-width="0.37013" stroke-dasharray="0.74 0.74"/>
<line x1="35.4089" y1="24.0229" x2="456.617" y2="24.0229" stroke="#D9D9D9" stroke-width="0.37013" stroke-dasharray="0.74 0.74"/>
<line x1="35.4089" y1="53.6333" x2="456.617" y2="53.6333" stroke="#D9D9D9" stroke-width="0.37013" stroke-dasharray="0.74 0.74"/>
<path d="M35.0388 89.7208L62.0679 92.6039C62.5423 92.6545 63.0205 92.5509 63.4315 92.3085L91.25 75.9028C91.5259 75.7401 91.7633 75.5196 91.946 75.2566L118.508 37.0067C119.057 36.2167 120.052 35.8696 120.973 36.147L148.956 44.5756C149.697 44.7989 150.501 44.6201 151.078 44.1037L179.978 18.2281C181.017 17.2979 182.646 17.5442 183.363 18.7401L210.424 63.8417C211.19 65.1177 212.969 65.2944 213.971 64.1939L240.392 35.1635C241.239 34.2333 242.688 34.1912 243.587 35.0706L275.623 66.4026L300.885 90.9721C301.826 91.8877 303.352 91.7909 304.17 90.7637L334.798 52.3087C335.468 51.4684 336.642 51.2276 337.588 51.7369L363.65 65.7701C364.373 66.1593 365.251 66.118 365.935 65.6625L395.178 46.1669C396.199 45.4866 397.577 45.7623 398.258 46.7829L427.586 90.7759C428.282 91.8188 429.702 92.0801 430.723 91.3528L455.876 73.4351" stroke="#CEDEFF" stroke-width="2.22078"/>
<path d="M4.16198 55.4155V54.0831H1.00848V53.5057L4.02874 49.1973H4.89928V53.4257H5.82313V54.0831H4.89928V55.4155H4.16198ZM1.83461 53.4257H4.19752V50.0235L1.83461 53.4257ZM9.14958 55.5221C8.59882 55.5221 8.1221 55.3889 7.71939 55.1224C7.32262 54.85 7.01763 54.4739 6.80443 53.9942C6.59124 53.5086 6.48464 52.946 6.48464 52.3064C6.48464 51.6669 6.59124 51.1072 6.80443 50.6275C7.01763 50.1419 7.32262 49.7659 7.71939 49.4994C8.1221 49.227 8.59882 49.0907 9.14958 49.0907C9.70033 49.0907 10.1741 49.227 10.5709 49.4994C10.9677 49.7659 11.2726 50.1419 11.4858 50.6275C11.699 51.1072 11.8056 51.6669 11.8056 52.3064C11.8056 52.946 11.699 53.5086 11.4858 53.9942C11.2726 54.4739 10.9677 54.85 10.5709 55.1224C10.1741 55.3889 9.70033 55.5221 9.14958 55.5221ZM9.14958 54.8648C9.51082 54.8648 9.83358 54.7641 10.1178 54.5627C10.408 54.3555 10.6331 54.0623 10.793 53.6833C10.9588 53.2984 11.0417 52.8394 11.0417 52.3064C11.0417 51.7734 10.9588 51.3174 10.793 50.9384C10.6331 50.5594 10.408 50.2692 10.1178 50.0679C9.83358 49.8606 9.51082 49.757 9.14958 49.757C8.78241 49.757 8.45669 49.8606 8.17243 50.0679C7.88817 50.2692 7.66314 50.5594 7.49732 50.9384C7.3315 51.3174 7.24859 51.7734 7.24859 52.3064C7.24859 52.8394 7.3315 53.2984 7.49732 53.6833C7.66314 54.0623 7.88817 54.3555 8.17243 54.5627C8.45669 54.7641 8.78241 54.8648 9.14958 54.8648ZM15.3088 55.5221C14.758 55.5221 14.2813 55.3889 13.8786 55.1224C13.4818 54.85 13.1768 54.4739 12.9636 53.9942C12.7504 53.5086 12.6438 52.946 12.6438 52.3064C12.6438 51.6669 12.7504 51.1072 12.9636 50.6275C13.1768 50.1419 13.4818 49.7659 13.8786 49.4994C14.2813 49.227 14.758 49.0907 15.3088 49.0907C15.8595 49.0907 16.3333 49.227 16.7301 49.4994C17.1268 49.7659 17.4318 50.1419 17.645 50.6275C17.8582 51.1072 17.9648 51.6669 17.9648 52.3064C17.9648 52.946 17.8582 53.5086 17.645 53.9942C17.4318 54.4739 17.1268 54.85 16.7301 55.1224C16.3333 55.3889 15.8595 55.5221 15.3088 55.5221ZM15.3088 54.8648C15.67 54.8648 15.9928 54.7641 16.277 54.5627C16.5672 54.3555 16.7923 54.0623 16.9521 53.6833C17.118 53.2984 17.2009 52.8394 17.2009 52.3064C17.2009 51.7734 17.118 51.3174 16.9521 50.9384C16.7923 50.5594 16.5672 50.2692 16.277 50.0679C15.9928 49.8606 15.67 49.757 15.3088 49.757C14.9416 49.757 14.6159 49.8606 14.3316 50.0679C14.0474 50.2692 13.8223 50.5594 13.6565 50.9384C13.4907 51.3174 13.4078 51.7734 13.4078 52.3064C13.4078 52.8394 13.4907 53.2984 13.6565 53.6833C13.8223 54.0623 14.0474 54.3555 14.3316 54.5627C14.6159 54.7641 14.9416 54.8648 15.3088 54.8648ZM21.468 55.5221C20.9172 55.5221 20.4405 55.3889 20.0378 55.1224C19.641 54.85 19.336 54.4739 19.1228 53.9942C18.9096 53.5086 18.803 52.946 18.803 52.3064C18.803 51.6669 18.9096 51.1072 19.1228 50.6275C19.336 50.1419 19.641 49.7659 20.0378 49.4994C20.4405 49.227 20.9172 49.0907 21.468 49.0907C22.0187 49.0907 22.4925 49.227 22.8893 49.4994C23.286 49.7659 23.591 50.1419 23.8042 50.6275C24.0174 51.1072 24.124 51.6669 24.124 52.3064C24.124 52.946 24.0174 53.5086 23.8042 53.9942C23.591 54.4739 23.286 54.85 22.8893 55.1224C22.4925 55.3889 22.0187 55.5221 21.468 55.5221ZM21.468 54.8648C21.8292 54.8648 22.152 54.7641 22.4362 54.5627C22.7264 54.3555 22.9514 54.0623 23.1113 53.6833C23.2772 53.2984 23.3601 52.8394 23.3601 52.3064C23.3601 51.7734 23.2772 51.3174 23.1113 50.9384C22.9514 50.5594 22.7264 50.2692 22.4362 50.0679C22.152 49.8606 21.8292 49.757 21.468 49.757C21.1008 49.757 20.7751 49.8606 20.4908 50.0679C20.2066 50.2692 19.9815 50.5594 19.8157 50.9384C19.6499 51.3174 19.567 51.7734 19.567 52.3064C19.567 52.8394 19.6499 53.2984 19.8157 53.6833C19.9815 54.0623 20.2066 54.3555 20.4908 54.5627C20.7751 54.7641 21.1008 54.8648 21.468 54.8648Z" fill="#D9D9D9"/>
<path d="M1.43917 86.5063V85.9822C1.85964 85.6506 2.25642 85.316 2.62951 84.9785C3.00852 84.635 3.34312 84.2974 3.6333 83.9658C3.9294 83.6341 4.16036 83.3084 4.32618 82.9886C4.49792 82.6688 4.58379 82.3609 4.58379 82.0648C4.58379 81.8457 4.5453 81.6414 4.46831 81.4519C4.39725 81.2623 4.27881 81.1113 4.11299 80.9988C3.94717 80.8804 3.72213 80.8212 3.43787 80.8212C3.16546 80.8212 2.93746 80.8833 2.75387 81.0077C2.57029 81.1261 2.43112 81.286 2.33636 81.4874C2.24753 81.6887 2.20312 81.9049 2.20312 82.1359H1.48358C1.48358 81.7272 1.56945 81.3778 1.7412 81.0876C1.91294 80.7915 2.14686 80.5665 2.44296 80.4125C2.73907 80.2586 3.07366 80.1816 3.44675 80.1816C3.99751 80.1816 4.44759 80.3385 4.79699 80.6524C5.15231 80.9603 5.32998 81.4222 5.32998 82.0381C5.32998 82.4053 5.23818 82.7695 5.0546 83.1308C4.87101 83.4861 4.63709 83.8325 4.35283 84.1701C4.06857 84.5017 3.76359 84.8126 3.43787 85.1028C3.11808 85.393 2.81901 85.6536 2.54068 85.8845H5.54317V86.5063H1.43917ZM8.95873 86.6129C8.40798 86.6129 7.93125 86.4797 7.52855 86.2132C7.13177 85.9408 6.82678 85.5647 6.61359 85.085C6.40039 84.5994 6.29379 84.0368 6.29379 83.3973C6.29379 82.7577 6.40039 82.198 6.61359 81.7183C6.82678 81.2327 7.13177 80.8567 7.52855 80.5902C7.93125 80.3178 8.40798 80.1816 8.95873 80.1816C9.50948 80.1816 9.98325 80.3178 10.38 80.5902C10.7768 80.8567 11.0818 81.2327 11.295 81.7183C11.5082 82.198 11.6148 82.7577 11.6148 83.3973C11.6148 84.0368 11.5082 84.5994 11.295 85.085C11.0818 85.5647 10.7768 85.9408 10.38 86.2132C9.98325 86.4797 9.50948 86.6129 8.95873 86.6129ZM8.95873 85.9556C9.31998 85.9556 9.64273 85.8549 9.92699 85.6536C10.2172 85.4463 10.4422 85.1532 10.6021 84.7741C10.7679 84.3892 10.8508 83.9302 10.8508 83.3973C10.8508 82.8643 10.7679 82.4083 10.6021 82.0293C10.4422 81.6502 10.2172 81.3601 9.92699 81.1587C9.64273 80.9514 9.31998 80.8478 8.95873 80.8478C8.59156 80.8478 8.26585 80.9514 7.98159 81.1587C7.69733 81.3601 7.47229 81.6502 7.30647 82.0293C7.14065 82.4083 7.05774 82.8643 7.05774 83.3973C7.05774 83.9302 7.14065 84.3892 7.30647 84.7741C7.47229 85.1532 7.69733 85.4463 7.98159 85.6536C8.26585 85.8549 8.59156 85.9556 8.95873 85.9556ZM15.1179 86.6129C14.5672 86.6129 14.0904 86.4797 13.6877 86.2132C13.291 85.9408 12.986 85.5647 12.7728 85.085C12.5596 84.5994 12.453 84.0368 12.453 83.3973C12.453 82.7577 12.5596 82.198 12.7728 81.7183C12.986 81.2327 13.291 80.8567 13.6877 80.5902C14.0904 80.3178 14.5672 80.1816 15.1179 80.1816C15.6687 80.1816 16.1424 80.3178 16.5392 80.5902C16.936 80.8567 17.241 81.2327 17.4542 81.7183C17.6674 82.198 17.774 82.7577 17.774 83.3973C17.774 84.0368 17.6674 84.5994 17.4542 85.085C17.241 85.5647 16.936 85.9408 16.5392 86.2132C16.1424 86.4797 15.6687 86.6129 15.1179 86.6129ZM15.1179 85.9556C15.4792 85.9556 15.8019 85.8549 16.0862 85.6536C16.3764 85.4463 16.6014 85.1532 16.7613 84.7741C16.9271 84.3892 17.01 83.9302 17.01 83.3973C17.01 82.8643 16.9271 82.4083 16.7613 82.0293C16.6014 81.6502 16.3764 81.3601 16.0862 81.1587C15.8019 80.9514 15.4792 80.8478 15.1179 80.8478C14.7508 80.8478 14.425 80.9514 14.1408 81.1587C13.8565 81.3601 13.6315 81.6502 13.4657 82.0293C13.2998 82.4083 13.2169 82.8643 13.2169 83.3973C13.2169 83.9302 13.2998 84.3892 13.4657 84.7741C13.6315 85.1532 13.8565 85.4463 14.1408 85.6536C14.425 85.8549 14.7508 85.9556 15.1179 85.9556ZM21.2771 86.6129C20.7264 86.6129 20.2496 86.4797 19.8469 86.2132C19.4502 85.9408 19.1452 85.5647 18.932 85.085C18.7188 84.5994 18.6122 84.0368 18.6122 83.3973C18.6122 82.7577 18.7188 82.198 18.932 81.7183C19.1452 81.2327 19.4502 80.8567 19.8469 80.5902C20.2496 80.3178 20.7264 80.1816 21.2771 80.1816C21.8279 80.1816 22.3016 80.3178 22.6984 80.5902C23.0952 80.8567 23.4002 81.2327 23.6134 81.7183C23.8266 82.198 23.9332 82.7577 23.9332 83.3973C23.9332 84.0368 23.8266 84.5994 23.6134 85.085C23.4002 85.5647 23.0952 85.9408 22.6984 86.2132C22.3016 86.4797 21.8279 86.6129 21.2771 86.6129ZM21.2771 85.9556C21.6384 85.9556 21.9611 85.8549 22.2454 85.6536C22.5356 85.4463 22.7606 85.1532 22.9205 84.7741C23.0863 84.3892 23.1692 83.9302 23.1692 83.3973C23.1692 82.8643 23.0863 82.4083 22.9205 82.0293C22.7606 81.6502 22.5356 81.3601 22.2454 81.1587C21.9611 80.9514 21.6384 80.8478 21.2771 80.8478C20.9099 80.8478 20.5842 80.9514 20.3 81.1587C20.0157 81.3601 19.7907 81.6502 19.6249 82.0293C19.459 82.4083 19.3761 82.8643 19.3761 83.3973C19.3761 83.9302 19.459 84.3892 19.6249 84.7741C19.7907 85.1532 20.0157 85.4463 20.3 85.6536C20.5842 85.8549 20.9099 85.9556 21.2771 85.9556Z" fill="#D9D9D9"/>
<path d="M3.97614 24.4313C3.52607 24.4313 3.14705 24.3484 2.83911 24.1826C2.53116 24.0108 2.28243 23.7828 2.09292 23.4986C1.90934 23.2143 1.77313 22.8975 1.6843 22.5481C1.60139 22.1928 1.55994 21.8315 1.55994 21.4643C1.55994 20.7774 1.65469 20.1763 1.8442 19.6611C2.0337 19.1399 2.30612 18.7343 2.66144 18.4441C3.02269 18.148 3.45796 17.9999 3.96726 17.9999C4.35812 17.9999 4.69272 18.0769 4.97105 18.2309C5.24939 18.3849 5.46851 18.5921 5.6284 18.8527C5.79422 19.1074 5.89786 19.3916 5.93931 19.7055H5.24643C5.18129 19.3679 5.0362 19.1074 4.81116 18.9238C4.58612 18.7402 4.30186 18.6484 3.95838 18.6484C3.49053 18.6484 3.09672 18.8705 2.77692 19.3146C2.46305 19.7529 2.29427 20.4398 2.27059 21.3755C2.41272 21.0972 2.63775 20.8573 2.9457 20.656C3.25957 20.4487 3.63562 20.3451 4.07386 20.3451C4.42918 20.3451 4.76082 20.428 5.06877 20.5938C5.38264 20.7596 5.63729 20.9935 5.83272 21.2956C6.02814 21.5917 6.12586 21.9411 6.12586 22.3438C6.12586 22.6932 6.03999 23.0278 5.86825 23.3476C5.69651 23.6674 5.44778 23.9279 5.12207 24.1293C4.80227 24.3306 4.4203 24.4313 3.97614 24.4313ZM3.92285 23.774C4.20118 23.774 4.44991 23.7147 4.66903 23.5963C4.88814 23.4778 5.05988 23.315 5.18425 23.1077C5.30861 22.8945 5.37079 22.6517 5.37079 22.3793C5.37079 21.9588 5.23162 21.6242 4.95329 21.3755C4.68087 21.1209 4.33739 20.9935 3.92285 20.9935C3.64451 20.9935 3.39578 21.0587 3.17666 21.189C2.95755 21.3133 2.78285 21.4821 2.65256 21.6953C2.5282 21.9085 2.46601 22.1395 2.46601 22.3882C2.46601 22.6547 2.5282 22.8945 2.65256 23.1077C2.78285 23.315 2.95755 23.4778 3.17666 23.5963C3.39578 23.7147 3.64451 23.774 3.92285 23.774ZM9.75801 24.4313C9.20726 24.4313 8.73053 24.2981 8.32783 24.0316C7.93105 23.7591 7.62606 23.3831 7.41287 22.9034C7.19967 22.4178 7.09308 21.8552 7.09308 21.2156C7.09308 20.576 7.19967 20.0164 7.41287 19.5367C7.62606 19.0511 7.93105 18.675 8.32783 18.4086C8.73053 18.1361 9.20726 17.9999 9.75801 17.9999C10.3088 17.9999 10.7825 18.1361 11.1793 18.4086C11.5761 18.675 11.8811 19.0511 12.0943 19.5367C12.3075 20.0164 12.4141 20.576 12.4141 21.2156C12.4141 21.8552 12.3075 22.4178 12.0943 22.9034C11.8811 23.3831 11.5761 23.7591 11.1793 24.0316C10.7825 24.2981 10.3088 24.4313 9.75801 24.4313ZM9.75801 23.774C10.1193 23.774 10.442 23.6733 10.7263 23.4719C11.0165 23.2647 11.2415 22.9715 11.4014 22.5925C11.5672 22.2076 11.6501 21.7486 11.6501 21.2156C11.6501 20.6826 11.5672 20.2266 11.4014 19.8476C11.2415 19.4686 11.0165 19.1784 10.7263 18.9771C10.442 18.7698 10.1193 18.6662 9.75801 18.6662C9.39084 18.6662 9.06513 18.7698 8.78087 18.9771C8.49661 19.1784 8.27157 19.4686 8.10575 19.8476C7.93993 20.2266 7.85703 20.6826 7.85703 21.2156C7.85703 21.7486 7.93993 22.2076 8.10575 22.5925C8.27157 22.9715 8.49661 23.2647 8.78087 23.4719C9.06513 23.6733 9.39084 23.774 9.75801 23.774ZM15.9172 24.4313C15.3665 24.4313 14.8897 24.2981 14.487 24.0316C14.0902 23.7591 13.7853 23.3831 13.5721 22.9034C13.3589 22.4178 13.2523 21.8552 13.2523 21.2156C13.2523 20.576 13.3589 20.0164 13.5721 19.5367C13.7853 19.0511 14.0902 18.675 14.487 18.4086C14.8897 18.1361 15.3665 17.9999 15.9172 17.9999C16.468 17.9999 16.9417 18.1361 17.3385 18.4086C17.7353 18.675 18.0403 19.0511 18.2535 19.5367C18.4667 20.0164 18.5733 20.576 18.5733 21.2156C18.5733 21.8552 18.4667 22.4178 18.2535 22.9034C18.0403 23.3831 17.7353 23.7591 17.3385 24.0316C16.9417 24.2981 16.468 24.4313 15.9172 24.4313ZM15.9172 23.774C16.2785 23.774 16.6012 23.6733 16.8855 23.4719C17.1756 23.2647 17.4007 22.9715 17.5606 22.5925C17.7264 22.2076 17.8093 21.7486 17.8093 21.2156C17.8093 20.6826 17.7264 20.2266 17.5606 19.8476C17.4007 19.4686 17.1756 19.1784 16.8855 18.9771C16.6012 18.7698 16.2785 18.6662 15.9172 18.6662C15.55 18.6662 15.2243 18.7698 14.9401 18.9771C14.6558 19.1784 14.4308 19.4686 14.2649 19.8476C14.0991 20.2266 14.0162 20.6826 14.0162 21.2156C14.0162 21.7486 14.0991 22.2076 14.2649 22.5925C14.4308 22.9715 14.6558 23.2647 14.9401 23.4719C15.2243 23.6733 15.55 23.774 15.9172 23.774ZM22.0764 24.4313C21.5256 24.4313 21.0489 24.2981 20.6462 24.0316C20.2494 23.7591 19.9445 23.3831 19.7313 22.9034C19.5181 22.4178 19.4115 21.8552 19.4115 21.2156C19.4115 20.576 19.5181 20.0164 19.7313 19.5367C19.9445 19.0511 20.2494 18.675 20.6462 18.4086C21.0489 18.1361 21.5256 17.9999 22.0764 17.9999C22.6272 17.9999 23.1009 18.1361 23.4977 18.4086C23.8945 18.675 24.1995 19.0511 24.4127 19.5367C24.6259 20.0164 24.7325 20.576 24.7325 21.2156C24.7325 21.8552 24.6259 22.4178 24.4127 22.9034C24.1995 23.3831 23.8945 23.7591 23.4977 24.0316C23.1009 24.2981 22.6272 24.4313 22.0764 24.4313ZM22.0764 23.774C22.4376 23.774 22.7604 23.6733 23.0447 23.4719C23.3348 23.2647 23.5599 22.9715 23.7198 22.5925C23.8856 22.2076 23.9685 21.7486 23.9685 21.2156C23.9685 20.6826 23.8856 20.2266 23.7198 19.8476C23.5599 19.4686 23.3348 19.1784 23.0447 18.9771C22.7604 18.7698 22.4376 18.6662 22.0764 18.6662C21.7092 18.6662 21.3835 18.7698 21.0993 18.9771C20.815 19.1784 20.59 19.4686 20.4241 19.8476C20.2583 20.2266 20.1754 20.6826 20.1754 21.2156C20.1754 21.7486 20.2583 22.2076 20.4241 22.5925C20.59 22.9715 20.815 23.2647 21.0993 23.4719C21.3835 23.6733 21.7092 23.774 22.0764 23.774Z" fill="#D9D9D9"/>
</svg>
