<svg width="337" height="230" viewBox="0 0 337 230" fill="none" xmlns="http://www.w3.org/2000/svg">
<line x1="36.1903" y1="168.25" x2="334.762" y2="168.25" stroke="#D9D9D9" stroke-width="0.452381" stroke-dasharray="0.9 0.9"/>
<line x1="36.1903" y1="95.8691" x2="334.762" y2="95.8691" stroke="#D9D9D9" stroke-width="0.452381" stroke-dasharray="0.9 0.9"/>
<line x1="36.1903" y1="132.06" x2="334.762" y2="132.06" stroke="#D9D9D9" stroke-width="0.452381" stroke-dasharray="0.9 0.9"/>
<line x1="36.1903" y1="59.6786" x2="334.762" y2="59.6786" stroke="#D9D9D9" stroke-width="0.452381" stroke-dasharray="0.9 0.9"/>
<line x1="36.1903" y1="23.4881" x2="334.762" y2="23.4881" stroke="#D9D9D9" stroke-width="0.452381" stroke-dasharray="0.9 0.9"/>
<rect x="37.0951" y="205.571" width="204.476" height="298.571" rx="14.4762" transform="rotate(-90 37.0951 205.571)" stroke="#858590" stroke-opacity="0.6" stroke-width="1.80952"/>
<path d="M66.7257 226.654C66.1974 226.654 65.7522 226.553 65.3903 226.35C65.0284 226.14 64.7461 225.869 64.5434 225.536C64.3408 225.203 64.2214 224.845 64.1852 224.461H65.4772C65.5351 224.794 65.6726 225.051 65.8897 225.232C66.1141 225.413 66.3964 225.503 66.7366 225.503C67.2215 225.503 67.6124 225.282 67.9092 224.841C68.2059 224.392 68.3652 223.712 68.3869 222.8C68.2132 223.097 67.949 223.343 67.5943 223.538C67.2469 223.734 66.8633 223.831 66.4434 223.831C66.0236 223.831 65.6292 223.73 65.26 223.527C64.8909 223.325 64.5905 223.039 64.3589 222.67C64.1273 222.3 64.0114 221.866 64.0114 221.367C64.0114 220.911 64.1236 220.487 64.348 220.096C64.5724 219.706 64.8836 219.391 65.2817 219.152C65.6798 218.913 66.1467 218.794 66.6823 218.794C67.2541 218.794 67.7354 218.898 68.1263 219.108C68.5172 219.318 68.8284 219.601 69.06 219.955C69.2989 220.31 69.469 220.704 69.5703 221.139C69.6789 221.573 69.7332 222.018 69.7332 222.474C69.7332 223.321 69.6137 224.059 69.3749 224.689C69.1433 225.311 68.7994 225.796 68.3434 226.144C67.8947 226.484 67.3554 226.654 66.7257 226.654ZM66.7692 222.659C67.037 222.659 67.2794 222.601 67.4966 222.485C67.7137 222.362 67.8838 222.203 68.0069 222.007C68.1299 221.805 68.1914 221.58 68.1914 221.334C68.1914 220.943 68.0539 220.621 67.7789 220.368C67.5111 220.114 67.1709 219.988 66.7583 219.988C66.353 219.988 66.0164 220.114 65.7486 220.368C65.4808 220.614 65.3469 220.929 65.3469 221.312C65.3469 221.718 65.4808 222.043 65.7486 222.29C66.0164 222.536 66.3566 222.659 66.7692 222.659Z" fill="#D9D9D9"/>
<path d="M12.5075 172.238V165.659L11.2806 165.93V165.3L12.8115 164.638H13.4303V172.238H12.5075ZM17.9986 172.368C17.3254 172.368 16.7427 172.206 16.2506 171.88C15.7656 171.547 15.3928 171.087 15.1323 170.501C14.8717 169.907 14.7414 169.22 14.7414 168.438C14.7414 167.656 14.8717 166.972 15.1323 166.386C15.3928 165.793 15.7656 165.333 16.2506 165.007C16.7427 164.674 17.3254 164.508 17.9986 164.508C18.6717 164.508 19.2507 164.674 19.7357 165.007C20.2207 165.333 20.5934 165.793 20.854 166.386C21.1146 166.972 21.2448 167.656 21.2448 168.438C21.2448 169.22 21.1146 169.907 20.854 170.501C20.5934 171.087 20.2207 171.547 19.7357 171.88C19.2507 172.206 18.6717 172.368 17.9986 172.368ZM17.9986 171.565C18.4401 171.565 18.8346 171.442 19.182 171.196C19.5367 170.942 19.8117 170.584 20.0071 170.121C20.2098 169.65 20.3111 169.09 20.3111 168.438C20.3111 167.787 20.2098 167.229 20.0071 166.766C19.8117 166.303 19.5367 165.948 19.182 165.702C18.8346 165.449 18.4401 165.322 17.9986 165.322C17.5498 165.322 17.1517 165.449 16.8043 165.702C16.4568 165.948 16.1818 166.303 15.9791 166.766C15.7765 167.229 15.6751 167.787 15.6751 168.438C15.6751 169.09 15.7765 169.65 15.9791 170.121C16.1818 170.584 16.4568 170.942 16.8043 171.196C17.1517 171.442 17.5498 171.565 17.9986 171.565Z" fill="#D9D9D9"/>
<path d="M9.00915 136.048V135.407C9.52305 135.002 10.008 134.593 10.464 134.18C10.9272 133.76 11.3362 133.348 11.6909 132.942C12.0528 132.537 12.3351 132.139 12.5377 131.748C12.7476 131.357 12.8526 130.981 12.8526 130.619C12.8526 130.351 12.8055 130.102 12.7114 129.87C12.6246 129.638 12.4798 129.454 12.2771 129.316C12.0745 129.171 11.7994 129.099 11.452 129.099C11.1191 129.099 10.8404 129.175 10.616 129.327C10.3916 129.472 10.2215 129.667 10.1057 129.913C9.99715 130.159 9.94286 130.424 9.94286 130.706H9.06343C9.06343 130.206 9.16838 129.779 9.37829 129.425C9.58819 129.063 9.8741 128.788 10.236 128.6C10.5979 128.411 11.0069 128.317 11.4629 128.317C12.136 128.317 12.6861 128.509 13.1131 128.893C13.5474 129.269 13.7646 129.834 13.7646 130.586C13.7646 131.035 13.6524 131.48 13.428 131.922C13.2036 132.356 12.9177 132.78 12.5703 133.192C12.2229 133.598 11.8501 133.978 11.452 134.332C11.0611 134.687 10.6956 135.005 10.3554 135.288H14.0251V136.048H9.00915ZM18.1997 136.178C17.5266 136.178 16.9439 136.015 16.4517 135.689C15.9668 135.356 15.594 134.897 15.3334 134.31C15.0729 133.717 14.9426 133.029 14.9426 132.248C14.9426 131.466 15.0729 130.782 15.3334 130.196C15.594 129.602 15.9668 129.142 16.4517 128.817C16.9439 128.484 17.5266 128.317 18.1997 128.317C18.8729 128.317 19.4519 128.484 19.9369 128.817C20.4218 129.142 20.7946 129.602 21.0551 130.196C21.3157 130.782 21.446 131.466 21.446 132.248C21.446 133.029 21.3157 133.717 21.0551 134.31C20.7946 134.897 20.4218 135.356 19.9369 135.689C19.4519 136.015 18.8729 136.178 18.1997 136.178ZM18.1997 135.374C18.6412 135.374 19.0357 135.251 19.3831 135.005C19.7378 134.752 20.0129 134.394 20.2083 133.93C20.411 133.46 20.5123 132.899 20.5123 132.248C20.5123 131.596 20.411 131.039 20.2083 130.576C20.0129 130.112 19.7378 129.758 19.3831 129.512C19.0357 129.258 18.6412 129.132 18.1997 129.132C17.751 129.132 17.3529 129.258 17.0054 129.512C16.658 129.758 16.383 130.112 16.1803 130.576C15.9776 131.039 15.8763 131.596 15.8763 132.248C15.8763 132.899 15.9776 133.46 16.1803 133.93C16.383 134.394 16.658 134.752 17.0054 135.005C17.3529 135.251 17.751 135.374 18.1997 135.374Z" fill="#D9D9D9"/>
<path d="M10.4528 99.9874C9.96789 99.9874 9.52999 99.9006 9.13913 99.7269C8.74827 99.5459 8.43341 99.2781 8.19456 98.9234C7.96294 98.5688 7.83989 98.1272 7.82541 97.5989H8.74827C8.75551 98.0331 8.90751 98.4095 9.20427 98.728C9.50103 99.0392 9.91722 99.1949 10.4528 99.1949C10.9885 99.1949 11.3902 99.0465 11.658 98.7497C11.933 98.453 12.0706 98.0947 12.0706 97.6749C12.0706 97.3202 11.9837 97.0307 11.81 96.8063C11.6435 96.5819 11.4155 96.4154 11.126 96.3069C10.8437 96.1983 10.5325 96.144 10.1923 96.144H9.6277V95.3731H10.1923C10.6845 95.3731 11.0681 95.261 11.3431 95.0366C11.6254 94.8122 11.7666 94.4973 11.7666 94.092C11.7666 93.7518 11.6544 93.4731 11.43 93.256C11.2128 93.0316 10.8871 92.9194 10.4528 92.9194C10.033 92.9194 9.69646 93.0461 9.44313 93.2994C9.1898 93.5455 9.04865 93.8568 9.0197 94.2331H8.09684C8.11856 93.8206 8.22713 93.4551 8.42256 93.1366C8.62522 92.8181 8.90027 92.572 9.2477 92.3983C9.59513 92.2173 9.99684 92.1269 10.4528 92.1269C10.945 92.1269 11.354 92.2137 11.6797 92.3874C12.0127 92.5611 12.2624 92.7928 12.4288 93.0823C12.6026 93.3718 12.6894 93.6903 12.6894 94.0377C12.6894 94.4213 12.5845 94.7724 12.3746 95.0909C12.1647 95.4021 11.8498 95.612 11.43 95.7206C11.8787 95.8147 12.2515 96.0282 12.5483 96.3611C12.845 96.6941 12.9934 97.132 12.9934 97.6749C12.9934 98.0947 12.8957 98.4819 12.7003 98.8366C12.5121 99.184 12.2298 99.4627 11.8534 99.6726C11.477 99.8825 11.0102 99.9874 10.4528 99.9874ZM17.4328 99.9874C16.7597 99.9874 16.177 99.8246 15.6848 99.4989C15.1998 99.1659 14.8271 98.7063 14.5665 98.12C14.3059 97.5265 14.1757 96.8389 14.1757 96.0571C14.1757 95.2754 14.3059 94.5914 14.5665 94.0051C14.8271 93.4116 15.1998 92.952 15.6848 92.6263C16.177 92.2933 16.7597 92.1269 17.4328 92.1269C18.1059 92.1269 18.685 92.2933 19.1699 92.6263C19.6549 92.952 20.0277 93.4116 20.2882 94.0051C20.5488 94.5914 20.6791 95.2754 20.6791 96.0571C20.6791 96.8389 20.5488 97.5265 20.2882 98.12C20.0277 98.7063 19.6549 99.1659 19.1699 99.4989C18.685 99.8246 18.1059 99.9874 17.4328 99.9874ZM17.4328 99.184C17.8743 99.184 18.2688 99.061 18.6162 98.8149C18.9709 98.5615 19.2459 98.2032 19.4414 97.74C19.644 97.2695 19.7454 96.7086 19.7454 96.0571C19.7454 95.4057 19.644 94.8484 19.4414 94.3851C19.2459 93.9219 18.9709 93.5672 18.6162 93.3211C18.2688 93.0678 17.8743 92.9411 17.4328 92.9411C16.984 92.9411 16.5859 93.0678 16.2385 93.3211C15.8911 93.5672 15.616 93.9219 15.4134 94.3851C15.2107 94.8484 15.1094 95.4057 15.1094 96.0571C15.1094 96.7086 15.2107 97.2695 15.4134 97.74C15.616 98.2032 15.8911 98.5615 16.2385 98.8149C16.5859 99.061 16.984 99.184 17.4328 99.184Z" fill="#D9D9D9"/>
<path d="M11.9323 63.6667V62.0381H8.07799V61.3324L11.7694 56.0667H12.8334V61.2347H13.9626V62.0381H12.8334V63.6667H11.9323ZM9.08771 61.2347H11.9757V57.0764L9.08771 61.2347ZM18.0282 63.797C17.3551 63.797 16.7724 63.6341 16.2802 63.3084C15.7953 62.9754 15.4225 62.5158 15.1619 61.9295C14.9014 61.336 14.7711 60.6484 14.7711 59.8667C14.7711 59.085 14.9014 58.401 15.1619 57.8147C15.4225 57.2211 15.7953 56.7615 16.2802 56.4358C16.7724 56.1029 17.3551 55.9364 18.0282 55.9364C18.7014 55.9364 19.2804 56.1029 19.7654 56.4358C20.2503 56.7615 20.6231 57.2211 20.8837 57.8147C21.1442 58.401 21.2745 59.085 21.2745 59.8667C21.2745 60.6484 21.1442 61.336 20.8837 61.9295C20.6231 62.5158 20.2503 62.9754 19.7654 63.3084C19.2804 63.6341 18.7014 63.797 18.0282 63.797ZM18.0282 62.9935C18.4697 62.9935 18.8642 62.8705 19.2117 62.6244C19.5663 62.3711 19.8414 62.0128 20.0368 61.5495C20.2395 61.0791 20.3408 60.5181 20.3408 59.8667C20.3408 59.2152 20.2395 58.6579 20.0368 58.1947C19.8414 57.7314 19.5663 57.3768 19.2117 57.1307C18.8642 56.8773 18.4697 56.7507 18.0282 56.7507C17.5795 56.7507 17.1814 56.8773 16.8339 57.1307C16.4865 57.3768 16.2115 57.7314 16.0088 58.1947C15.8061 58.6579 15.7048 59.2152 15.7048 59.8667C15.7048 60.5181 15.8061 61.0791 16.0088 61.5495C16.2115 62.0128 16.4865 62.3711 16.8339 62.6244C17.1814 62.8705 17.5795 62.9935 18.0282 62.9935Z" fill="#D9D9D9"/>
<path d="M11.0375 27.6065C10.5163 27.6065 10.0639 27.5124 9.68031 27.3242C9.29669 27.136 8.98907 26.8791 8.75745 26.5533C8.53307 26.2204 8.39555 25.844 8.34488 25.4242H9.23517C9.32202 25.844 9.52469 26.1842 9.84317 26.4448C10.1616 26.6981 10.5634 26.8248 11.0483 26.8248C11.4102 26.8248 11.7215 26.7415 11.982 26.5751C12.2426 26.4013 12.4416 26.1697 12.5792 25.8802C12.7239 25.5907 12.7963 25.2686 12.7963 24.9139C12.7963 24.3493 12.6371 23.8933 12.3186 23.5459C12.0001 23.1985 11.5875 23.0248 11.0809 23.0248C10.6611 23.0248 10.3028 23.1189 10.006 23.3071C9.70926 23.4952 9.49212 23.7413 9.3546 24.0453H8.48602L9.13745 19.8762H13.122V20.6688H9.84317L9.39802 22.9813C9.57174 22.7714 9.8106 22.5977 10.1146 22.4602C10.4258 22.3227 10.7805 22.2539 11.1786 22.2539C11.678 22.2539 12.1123 22.3697 12.4815 22.6013C12.8578 22.833 13.151 23.1478 13.3609 23.5459C13.5708 23.944 13.6757 24.3964 13.6757 24.9031C13.6757 25.388 13.5708 25.8368 13.3609 26.2493C13.1582 26.6619 12.8578 26.9912 12.4597 27.2373C12.0689 27.4834 11.5948 27.6065 11.0375 27.6065ZM18.0653 27.6065C17.3922 27.6065 16.8095 27.4436 16.3173 27.1179C15.8324 26.785 15.4596 26.3253 15.199 25.7391C14.9385 25.1455 14.8082 24.4579 14.8082 23.6762C14.8082 22.8945 14.9385 22.2105 15.199 21.6242C15.4596 21.0307 15.8324 20.5711 16.3173 20.2453C16.8095 19.9124 17.3922 19.7459 18.0653 19.7459C18.7385 19.7459 19.3175 19.9124 19.8025 20.2453C20.2874 20.5711 20.6602 21.0307 20.9208 21.6242C21.1813 22.2105 21.3116 22.8945 21.3116 23.6762C21.3116 24.4579 21.1813 25.1455 20.9208 25.7391C20.6602 26.3253 20.2874 26.785 19.8025 27.1179C19.3175 27.4436 18.7385 27.6065 18.0653 27.6065ZM18.0653 26.8031C18.5069 26.8031 18.9013 26.68 19.2488 26.4339C19.6034 26.1806 19.8785 25.8223 20.0739 25.3591C20.2766 24.8886 20.3779 24.3276 20.3779 23.6762C20.3779 23.0248 20.2766 22.4674 20.0739 22.0042C19.8785 21.541 19.6034 21.1863 19.2488 20.9402C18.9013 20.6869 18.5069 20.5602 18.0653 20.5602C17.6166 20.5602 17.2185 20.6869 16.871 20.9402C16.5236 21.1863 16.2486 21.541 16.0459 22.0042C15.8432 22.4674 15.7419 23.0248 15.7419 23.6762C15.7419 24.3276 15.8432 24.8886 16.0459 25.3591C16.2486 25.8223 16.5236 26.1806 16.871 26.4339C17.2185 26.68 17.6166 26.8031 18.0653 26.8031Z" fill="#D9D9D9"/>
<path d="M103.171 226.524V220.509L101.923 220.802V219.738L103.757 218.924H104.615V226.524H103.171ZM109.205 226.654C108.503 226.654 107.902 226.491 107.402 226.166C106.903 225.833 106.516 225.373 106.241 224.787C105.973 224.193 105.839 223.506 105.839 222.724C105.839 221.949 105.973 221.265 106.241 220.672C106.516 220.078 106.903 219.619 107.402 219.293C107.902 218.96 108.503 218.794 109.205 218.794C109.907 218.794 110.508 218.96 111.007 219.293C111.506 219.619 111.89 220.078 112.158 220.672C112.433 221.265 112.57 221.949 112.57 222.724C112.57 223.506 112.433 224.193 112.158 224.787C111.89 225.373 111.506 225.833 111.007 226.166C110.508 226.491 109.907 226.654 109.205 226.654ZM109.205 225.406C109.777 225.406 110.243 225.167 110.605 224.689C110.967 224.211 111.148 223.556 111.148 222.724C111.148 221.891 110.967 221.236 110.605 220.759C110.243 220.281 109.777 220.042 109.205 220.042C108.626 220.042 108.155 220.281 107.793 220.759C107.439 221.236 107.261 221.891 107.261 222.724C107.261 223.556 107.439 224.211 107.793 224.689C108.155 225.167 108.626 225.406 109.205 225.406Z" fill="#D9D9D9"/>
<path d="M144.773 226.524V220.509L143.524 220.802V219.738L145.359 218.924H146.217V226.524H144.773ZM148.516 226.524V220.509L147.267 220.802V219.738L149.102 218.924H149.96V226.524H148.516Z" fill="#D9D9D9"/>
<path d="M183.448 226.524V220.509L182.199 220.802V219.738L184.034 218.924H184.892V226.524H183.448ZM186.181 226.524V225.514C186.644 225.13 187.093 224.75 187.527 224.374C187.969 223.998 188.359 223.625 188.7 223.256C189.047 222.887 189.322 222.528 189.525 222.181C189.735 221.826 189.84 221.482 189.84 221.15C189.84 220.838 189.753 220.563 189.579 220.324C189.413 220.086 189.134 219.966 188.743 219.966C188.345 219.966 188.045 220.096 187.842 220.357C187.639 220.618 187.538 220.932 187.538 221.302H186.192C186.206 220.744 186.329 220.281 186.561 219.912C186.792 219.535 187.1 219.257 187.484 219.076C187.867 218.888 188.298 218.794 188.776 218.794C189.55 218.794 190.151 219.007 190.578 219.434C191.012 219.854 191.229 220.4 191.229 221.074C191.229 221.493 191.132 221.902 190.936 222.3C190.748 222.698 190.498 223.082 190.187 223.451C189.876 223.82 189.539 224.168 189.177 224.494C188.815 224.812 188.464 225.109 188.124 225.384H191.414V226.524H186.181Z" fill="#D9D9D9"/>
<path d="M226.073 226.524V220.509L224.824 220.802V219.738L226.659 218.924H227.517V226.524H226.073Z" fill="#D9D9D9"/>
<path d="M264.238 226.524V225.514C264.701 225.13 265.15 224.75 265.584 224.374C266.026 223.998 266.417 223.625 266.757 223.256C267.104 222.887 267.379 222.528 267.582 222.181C267.792 221.826 267.897 221.482 267.897 221.15C267.897 220.838 267.81 220.563 267.636 220.324C267.47 220.086 267.191 219.966 266.8 219.966C266.402 219.966 266.102 220.096 265.899 220.357C265.696 220.618 265.595 220.932 265.595 221.302H264.249C264.263 220.744 264.386 220.281 264.618 219.912C264.85 219.535 265.157 219.257 265.541 219.076C265.924 218.888 266.355 218.794 266.833 218.794C267.607 218.794 268.208 219.007 268.635 219.434C269.069 219.854 269.287 220.4 269.287 221.074C269.287 221.493 269.189 221.902 268.993 222.3C268.805 222.698 268.555 223.082 268.244 223.451C267.933 223.82 267.596 224.168 267.235 224.494C266.873 224.812 266.522 225.109 266.181 225.384H269.471V226.524H264.238Z" fill="#D9D9D9"/>
<path d="M305.681 226.654C305.182 226.654 304.729 226.567 304.324 226.394C303.919 226.213 303.593 225.938 303.347 225.568C303.101 225.199 302.97 224.736 302.956 224.179H304.324C304.331 224.548 304.451 224.859 304.682 225.112C304.921 225.358 305.254 225.482 305.681 225.482C306.086 225.482 306.398 225.369 306.615 225.145C306.832 224.921 306.94 224.638 306.94 224.298C306.94 223.9 306.796 223.6 306.506 223.397C306.224 223.187 305.858 223.082 305.41 223.082H304.845V221.942H305.42C305.79 221.942 306.097 221.855 306.343 221.682C306.589 221.508 306.712 221.251 306.712 220.911C306.712 220.628 306.618 220.404 306.43 220.238C306.249 220.064 305.996 219.977 305.67 219.977C305.316 219.977 305.037 220.082 304.834 220.292C304.639 220.502 304.53 220.759 304.508 221.063H303.151C303.18 220.361 303.423 219.807 303.879 219.402C304.342 218.996 304.939 218.794 305.67 218.794C306.191 218.794 306.629 218.888 306.984 219.076C307.346 219.257 307.617 219.499 307.798 219.803C307.986 220.107 308.08 220.444 308.08 220.813C308.08 221.24 307.961 221.602 307.722 221.899C307.491 222.188 307.201 222.384 306.854 222.485C307.281 222.572 307.628 222.782 307.896 223.115C308.164 223.44 308.298 223.853 308.298 224.352C308.298 224.772 308.196 225.156 307.994 225.503C307.791 225.851 307.494 226.129 307.103 226.339C306.72 226.549 306.246 226.654 305.681 226.654Z" fill="#D9D9D9"/>
<circle cx="66.4998" cy="177.976" r="5.88095" fill="#F142A7"/>
<circle cx="107.214" cy="150.833" r="5.88095" fill="#F142A7"/>
<circle cx="145.214" cy="75.7381" r="5.88095" fill="#F142A7"/>
<circle cx="186.833" cy="57.6429" r="5.88095" fill="#F142A7"/>
<circle cx="226.643" cy="110.119" r="5.88095" fill="#F142A7"/>
<circle cx="266.452" cy="148.119" r="5.88095" fill="#F142A7"/>
<circle cx="305.357" cy="177.976" r="5.88095" fill="#F142A7"/>
<path d="M66.4998 178.881L107.214 150.833L146.119 76.1905L185.476 58.5476L226.643 110.119L265.547 147.214L304.905 178.881" stroke="#CF2E8B" stroke-opacity="0.5" stroke-width="0.904762" stroke-dasharray="2.71 2.71"/>
<line x1="36.1905" y1="168.25" x2="334.762" y2="168.25" stroke="#D9D9D9" stroke-width="0.452381" stroke-dasharray="0.9 0.9"/>
<line x1="36.1905" y1="95.8691" x2="334.762" y2="95.8691" stroke="#D9D9D9" stroke-width="0.452381" stroke-dasharray="0.9 0.9"/>
<line x1="36.1905" y1="132.06" x2="334.762" y2="132.06" stroke="#D9D9D9" stroke-width="0.452381" stroke-dasharray="0.9 0.9"/>
<line x1="36.1905" y1="59.6786" x2="334.762" y2="59.6786" stroke="#D9D9D9" stroke-width="0.452381" stroke-dasharray="0.9 0.9"/>
<line x1="36.1905" y1="23.4881" x2="334.762" y2="23.4881" stroke="#D9D9D9" stroke-width="0.452381" stroke-dasharray="0.9 0.9"/>
<rect x="37.0952" y="205.571" width="204.476" height="298.571" rx="14.4762" transform="rotate(-90 37.0952 205.571)" stroke="#858590" stroke-opacity="0.6" stroke-width="1.80952"/>
<path d="M66.7259 226.654C66.1975 226.654 65.7524 226.553 65.3905 226.35C65.0286 226.14 64.7463 225.869 64.5436 225.536C64.341 225.203 64.2215 224.845 64.1853 224.461H65.4773C65.5353 224.794 65.6728 225.051 65.8899 225.232C66.1143 225.413 66.3966 225.503 66.7368 225.503C67.2217 225.503 67.6126 225.282 67.9093 224.841C68.2061 224.392 68.3653 223.712 68.3871 222.8C68.2133 223.097 67.9492 223.343 67.5945 223.538C67.2471 223.734 66.8634 223.831 66.4436 223.831C66.0238 223.831 65.6293 223.73 65.2602 223.527C64.8911 223.325 64.5907 223.039 64.3591 222.67C64.1274 222.3 64.0116 221.866 64.0116 221.367C64.0116 220.911 64.1238 220.487 64.3482 220.096C64.5726 219.706 64.8838 219.391 65.2819 219.152C65.68 218.913 66.1469 218.794 66.6825 218.794C67.2543 218.794 67.7356 218.898 68.1265 219.108C68.5173 219.318 68.8286 219.601 69.0602 219.955C69.2991 220.31 69.4692 220.704 69.5705 221.139C69.6791 221.573 69.7333 222.018 69.7333 222.474C69.7333 223.321 69.6139 224.059 69.3751 224.689C69.1434 225.311 68.7996 225.796 68.3436 226.144C67.8949 226.484 67.3556 226.654 66.7259 226.654ZM66.7693 222.659C67.0372 222.659 67.2796 222.601 67.4968 222.485C67.7139 222.362 67.884 222.203 68.0071 222.007C68.1301 221.805 68.1916 221.58 68.1916 221.334C68.1916 220.943 68.0541 220.621 67.7791 220.368C67.5113 220.114 67.1711 219.988 66.7585 219.988C66.3532 219.988 66.0166 220.114 65.7488 220.368C65.481 220.614 65.3471 220.929 65.3471 221.312C65.3471 221.718 65.481 222.043 65.7488 222.29C66.0166 222.536 66.3568 222.659 66.7693 222.659Z" fill="#D9D9D9"/>
<path d="M12.5077 172.238V165.659L11.2808 165.93V165.3L12.8117 164.638H13.4305V172.238H12.5077ZM17.9987 172.368C17.3256 172.368 16.7429 172.206 16.2507 171.88C15.7658 171.547 15.393 171.087 15.1325 170.501C14.8719 169.907 14.7416 169.22 14.7416 168.438C14.7416 167.656 14.8719 166.972 15.1325 166.386C15.393 165.793 15.7658 165.333 16.2507 165.007C16.7429 164.674 17.3256 164.508 17.9987 164.508C18.6719 164.508 19.2509 164.674 19.7359 165.007C20.2208 165.333 20.5936 165.793 20.8542 166.386C21.1147 166.972 21.245 167.656 21.245 168.438C21.245 169.22 21.1147 169.907 20.8542 170.501C20.5936 171.087 20.2208 171.547 19.7359 171.88C19.2509 172.206 18.6719 172.368 17.9987 172.368ZM17.9987 171.565C18.4403 171.565 18.8347 171.442 19.1822 171.196C19.5368 170.942 19.8119 170.584 20.0073 170.121C20.21 169.65 20.3113 169.09 20.3113 168.438C20.3113 167.787 20.21 167.229 20.0073 166.766C19.8119 166.303 19.5368 165.948 19.1822 165.702C18.8347 165.449 18.4403 165.322 17.9987 165.322C17.55 165.322 17.1519 165.449 16.8045 165.702C16.457 165.948 16.182 166.303 15.9793 166.766C15.7766 167.229 15.6753 167.787 15.6753 168.438C15.6753 169.09 15.7766 169.65 15.9793 170.121C16.182 170.584 16.457 170.942 16.8045 171.196C17.1519 171.442 17.55 171.565 17.9987 171.565Z" fill="#D9D9D9"/>
<path d="M9.00933 136.048V135.407C9.52323 135.002 10.0082 134.593 10.4642 134.18C10.9274 133.76 11.3364 133.348 11.691 132.942C12.0529 132.537 12.3352 132.139 12.5379 131.748C12.7478 131.357 12.8528 130.981 12.8528 130.619C12.8528 130.351 12.8057 130.102 12.7116 129.87C12.6248 129.638 12.48 129.454 12.2773 129.316C12.0747 129.171 11.7996 129.099 11.4522 129.099C11.1192 129.099 10.8406 129.175 10.6162 129.327C10.3918 129.472 10.2217 129.667 10.1059 129.913C9.99733 130.159 9.94304 130.424 9.94304 130.706H9.06362C9.06362 130.206 9.16857 129.779 9.37847 129.425C9.58838 129.063 9.87428 128.788 10.2362 128.6C10.5981 128.411 11.007 128.317 11.463 128.317C12.1362 128.317 12.6863 128.509 13.1133 128.893C13.5476 129.269 13.7648 129.834 13.7648 130.586C13.7648 131.035 13.6526 131.48 13.4282 131.922C13.2038 132.356 12.9179 132.78 12.5705 133.192C12.223 133.598 11.8503 133.978 11.4522 134.332C11.0613 134.687 10.6958 135.005 10.3556 135.288H14.0253V136.048H9.00933ZM18.1999 136.178C17.5268 136.178 16.9441 136.015 16.4519 135.689C15.9669 135.356 15.5942 134.897 15.3336 134.31C15.073 133.717 14.9428 133.029 14.9428 132.248C14.9428 131.466 15.073 130.782 15.3336 130.196C15.5942 129.602 15.9669 129.142 16.4519 128.817C16.9441 128.484 17.5268 128.317 18.1999 128.317C18.873 128.317 19.4521 128.484 19.937 128.817C20.422 129.142 20.7948 129.602 21.0553 130.196C21.3159 130.782 21.4462 131.466 21.4462 132.248C21.4462 133.029 21.3159 133.717 21.0553 134.31C20.7948 134.897 20.422 135.356 19.937 135.689C19.4521 136.015 18.873 136.178 18.1999 136.178ZM18.1999 135.374C18.6414 135.374 19.0359 135.251 19.3833 135.005C19.738 134.752 20.013 134.394 20.2085 133.93C20.4111 133.46 20.5125 132.899 20.5125 132.248C20.5125 131.596 20.4111 131.039 20.2085 130.576C20.013 130.112 19.738 129.758 19.3833 129.512C19.0359 129.258 18.6414 129.132 18.1999 129.132C17.7511 129.132 17.353 129.258 17.0056 129.512C16.6582 129.758 16.3831 130.112 16.1805 130.576C15.9778 131.039 15.8765 131.596 15.8765 132.248C15.8765 132.899 15.9778 133.46 16.1805 133.93C16.3831 134.394 16.6582 134.752 17.0056 135.005C17.353 135.251 17.7511 135.374 18.1999 135.374Z" fill="#D9D9D9"/>
<path d="M10.453 99.9874C9.96807 99.9874 9.53017 99.9006 9.13931 99.7269C8.74846 99.5459 8.4336 99.2781 8.19474 98.9234C7.96312 98.5688 7.84007 98.1272 7.8256 97.5989H8.74846C8.75569 98.0331 8.90769 98.4095 9.20445 98.728C9.50122 99.0392 9.91741 99.1949 10.453 99.1949C10.9886 99.1949 11.3904 99.0465 11.6582 98.7497C11.9332 98.453 12.0707 98.0947 12.0707 97.6749C12.0707 97.3202 11.9839 97.0307 11.8102 96.8063C11.6437 96.5819 11.4157 96.4154 11.1262 96.3069C10.8439 96.1983 10.5326 96.144 10.1925 96.144H9.62788V95.3731H10.1925C10.6846 95.3731 11.0683 95.261 11.3433 95.0366C11.6256 94.8122 11.7667 94.4973 11.7667 94.092C11.7667 93.7518 11.6546 93.4731 11.4302 93.256C11.213 93.0316 10.8873 92.9194 10.453 92.9194C10.0332 92.9194 9.69665 93.0461 9.44331 93.2994C9.18998 93.5455 9.04884 93.8568 9.01988 94.2331H8.09703C8.11874 93.8206 8.22731 93.4551 8.42274 93.1366C8.62541 92.8181 8.90046 92.572 9.24788 92.3983C9.59531 92.2173 9.99703 92.1269 10.453 92.1269C10.9452 92.1269 11.3542 92.2137 11.6799 92.3874C12.0128 92.5611 12.2626 92.7928 12.429 93.0823C12.6027 93.3718 12.6896 93.6903 12.6896 94.0377C12.6896 94.4213 12.5846 94.7724 12.3747 95.0909C12.1648 95.4021 11.85 95.612 11.4302 95.7206C11.8789 95.8147 12.2517 96.0282 12.5485 96.3611C12.8452 96.6941 12.9936 97.132 12.9936 97.6749C12.9936 98.0947 12.8959 98.4819 12.7005 98.8366C12.5123 99.184 12.23 99.4627 11.8536 99.6726C11.4772 99.8825 11.0104 99.9874 10.453 99.9874ZM17.433 99.9874C16.7598 99.9874 16.1772 99.8246 15.685 99.4989C15.2 99.1659 14.8273 98.7063 14.5667 98.12C14.3061 97.5265 14.1758 96.8389 14.1758 96.0571C14.1758 95.2754 14.3061 94.5914 14.5667 94.0051C14.8273 93.4116 15.2 92.952 15.685 92.6263C16.1772 92.2933 16.7598 92.1269 17.433 92.1269C18.1061 92.1269 18.6852 92.2933 19.1701 92.6263C19.6551 92.952 20.0278 93.4116 20.2884 94.0051C20.549 94.5914 20.6793 95.2754 20.6793 96.0571C20.6793 96.8389 20.549 97.5265 20.2884 98.12C20.0278 98.7063 19.6551 99.1659 19.1701 99.4989C18.6852 99.8246 18.1061 99.9874 17.433 99.9874ZM17.433 99.184C17.8745 99.184 18.269 99.061 18.6164 98.8149C18.9711 98.5615 19.2461 98.2032 19.4416 97.74C19.6442 97.2695 19.7456 96.7086 19.7456 96.0571C19.7456 95.4057 19.6442 94.8484 19.4416 94.3851C19.2461 93.9219 18.9711 93.5672 18.6164 93.3211C18.269 93.0678 17.8745 92.9411 17.433 92.9411C16.9842 92.9411 16.5861 93.0678 16.2387 93.3211C15.8913 93.5672 15.6162 93.9219 15.4136 94.3851C15.2109 94.8484 15.1096 95.4057 15.1096 96.0571C15.1096 96.7086 15.2109 97.2695 15.4136 97.74C15.6162 98.2032 15.8913 98.5615 16.2387 98.8149C16.5861 99.061 16.9842 99.184 17.433 99.184Z" fill="#D9D9D9"/>
<path d="M11.9325 63.6667V62.0381H8.07817V61.3324L11.7696 56.0667H12.8336V61.2347H13.9627V62.0381H12.8336V63.6667H11.9325ZM9.08789 61.2347H11.9759V57.0764L9.08789 61.2347ZM18.0284 63.797C17.3553 63.797 16.7726 63.6341 16.2804 63.3084C15.7955 62.9754 15.4227 62.5158 15.1621 61.9295C14.9015 61.336 14.7713 60.6484 14.7713 59.8667C14.7713 59.085 14.9015 58.401 15.1621 57.8147C15.4227 57.2211 15.7955 56.7615 16.2804 56.4358C16.7726 56.1029 17.3553 55.9364 18.0284 55.9364C18.7015 55.9364 19.2806 56.1029 19.7655 56.4358C20.2505 56.7615 20.6233 57.2211 20.8838 57.8147C21.1444 58.401 21.2747 59.085 21.2747 59.8667C21.2747 60.6484 21.1444 61.336 20.8838 61.9295C20.6233 62.5158 20.2505 62.9754 19.7655 63.3084C19.2806 63.6341 18.7015 63.797 18.0284 63.797ZM18.0284 62.9935C18.4699 62.9935 18.8644 62.8705 19.2118 62.6244C19.5665 62.3711 19.8415 62.0128 20.037 61.5495C20.2396 61.0791 20.341 60.5181 20.341 59.8667C20.341 59.2152 20.2396 58.6579 20.037 58.1947C19.8415 57.7314 19.5665 57.3768 19.2118 57.1307C18.8644 56.8773 18.4699 56.7507 18.0284 56.7507C17.5796 56.7507 17.1815 56.8773 16.8341 57.1307C16.4867 57.3768 16.2116 57.7314 16.009 58.1947C15.8063 58.6579 15.705 59.2152 15.705 59.8667C15.705 60.5181 15.8063 61.0791 16.009 61.5495C16.2116 62.0128 16.4867 62.3711 16.8341 62.6244C17.1815 62.8705 17.5796 62.9935 18.0284 62.9935Z" fill="#D9D9D9"/>
<path d="M11.0376 27.6065C10.5165 27.6065 10.0641 27.5124 9.68049 27.3242C9.29687 27.136 8.98926 26.8791 8.75764 26.5533C8.53326 26.2204 8.39573 25.844 8.34506 25.4242H9.23535C9.32221 25.844 9.52487 26.1842 9.84335 26.4448C10.1618 26.6981 10.5635 26.8248 11.0485 26.8248C11.4104 26.8248 11.7216 26.7415 11.9822 26.5751C12.2428 26.4013 12.4418 26.1697 12.5794 25.8802C12.7241 25.5907 12.7965 25.2686 12.7965 24.9139C12.7965 24.3493 12.6373 23.8933 12.3188 23.5459C12.0003 23.1985 11.5877 23.0248 11.0811 23.0248C10.6613 23.0248 10.303 23.1189 10.0062 23.3071C9.70945 23.4952 9.4923 23.7413 9.35478 24.0453H8.48621L9.13764 19.8762H13.1222V20.6688H9.84335L9.39821 22.9813C9.57192 22.7714 9.81078 22.5977 10.1148 22.4602C10.426 22.3227 10.7807 22.2539 11.1788 22.2539C11.6782 22.2539 12.1125 22.3697 12.4816 22.6013C12.858 22.833 13.1512 23.1478 13.3611 23.5459C13.571 23.944 13.6759 24.3964 13.6759 24.9031C13.6759 25.388 13.571 25.8368 13.3611 26.2493C13.1584 26.6619 12.858 26.9912 12.4599 27.2373C12.0691 27.4834 11.595 27.6065 11.0376 27.6065ZM18.0655 27.6065C17.3924 27.6065 16.8097 27.4436 16.3175 27.1179C15.8326 26.785 15.4598 26.3253 15.1992 25.7391C14.9387 25.1455 14.8084 24.4579 14.8084 23.6762C14.8084 22.8945 14.9387 22.2105 15.1992 21.6242C15.4598 21.0307 15.8326 20.5711 16.3175 20.2453C16.8097 19.9124 17.3924 19.7459 18.0655 19.7459C18.7387 19.7459 19.3177 19.9124 19.8027 20.2453C20.2876 20.5711 20.6604 21.0307 20.9209 21.6242C21.1815 22.2105 21.3118 22.8945 21.3118 23.6762C21.3118 24.4579 21.1815 25.1455 20.9209 25.7391C20.6604 26.3253 20.2876 26.785 19.8027 27.1179C19.3177 27.4436 18.7387 27.6065 18.0655 27.6065ZM18.0655 26.8031C18.507 26.8031 18.9015 26.68 19.2489 26.4339C19.6036 26.1806 19.8787 25.8223 20.0741 25.3591C20.2768 24.8886 20.3781 24.3276 20.3781 23.6762C20.3781 23.0248 20.2768 22.4674 20.0741 22.0042C19.8787 21.541 19.6036 21.1863 19.2489 20.9402C18.9015 20.6869 18.507 20.5602 18.0655 20.5602C17.6168 20.5602 17.2187 20.6869 16.8712 20.9402C16.5238 21.1863 16.2488 21.541 16.0461 22.0042C15.8434 22.4674 15.7421 23.0248 15.7421 23.6762C15.7421 24.3276 15.8434 24.8886 16.0461 25.3591C16.2488 25.8223 16.5238 26.1806 16.8712 26.4339C17.2187 26.68 17.6168 26.8031 18.0655 26.8031Z" fill="#D9D9D9"/>
<path d="M102.171 226.524V220.509L100.923 220.802V219.738L102.758 218.924H103.615V226.524H102.171ZM108.205 226.654C107.503 226.654 106.902 226.491 106.403 226.166C105.903 225.833 105.516 225.373 105.241 224.787C104.973 224.193 104.839 223.506 104.839 222.724C104.839 221.949 104.973 221.265 105.241 220.672C105.516 220.078 105.903 219.619 106.403 219.293C106.902 218.96 107.503 218.794 108.205 218.794C108.907 218.794 109.508 218.96 110.007 219.293C110.507 219.619 110.89 220.078 111.158 220.672C111.433 221.265 111.571 221.949 111.571 222.724C111.571 223.506 111.433 224.193 111.158 224.787C110.89 225.373 110.507 225.833 110.007 226.166C109.508 226.491 108.907 226.654 108.205 226.654ZM108.205 225.406C108.777 225.406 109.244 225.167 109.605 224.689C109.967 224.211 110.148 223.556 110.148 222.724C110.148 221.891 109.967 221.236 109.605 220.759C109.244 220.281 108.777 220.042 108.205 220.042C107.626 220.042 107.155 220.281 106.793 220.759C106.439 221.236 106.261 221.891 106.261 222.724C106.261 223.556 106.439 224.211 106.793 224.689C107.155 225.167 107.626 225.406 108.205 225.406Z" fill="#D9D9D9"/>
<path d="M144.773 226.524V220.509L143.524 220.802V219.738L145.359 218.924H146.217V226.524H144.773ZM148.516 226.524V220.509L147.267 220.802V219.738L149.102 218.924H149.96V226.524H148.516Z" fill="#D9D9D9"/>
<path d="M182.448 226.524V220.509L181.199 220.802V219.738L183.034 218.924H183.892V226.524H182.448ZM185.181 226.524V225.514C185.644 225.13 186.093 224.75 186.527 224.374C186.969 223.998 187.36 223.625 187.7 223.256C188.047 222.887 188.322 222.528 188.525 222.181C188.735 221.826 188.84 221.482 188.84 221.15C188.84 220.838 188.753 220.563 188.579 220.324C188.413 220.086 188.134 219.966 187.743 219.966C187.345 219.966 187.045 220.096 186.842 220.357C186.639 220.618 186.538 220.932 186.538 221.302H185.192C185.206 220.744 185.329 220.281 185.561 219.912C185.793 219.535 186.1 219.257 186.484 219.076C186.867 218.888 187.298 218.794 187.776 218.794C188.55 218.794 189.151 219.007 189.578 219.434C190.012 219.854 190.23 220.4 190.23 221.074C190.23 221.493 190.132 221.902 189.936 222.3C189.748 222.698 189.498 223.082 189.187 223.451C188.876 223.82 188.539 224.168 188.178 224.494C187.816 224.812 187.465 225.109 187.124 225.384H190.414V226.524H185.181Z" fill="#D9D9D9"/>
<path d="M226.073 226.524V220.509L224.824 220.802V219.738L226.659 218.924H227.517V226.524H226.073Z" fill="#D9D9D9"/>
<path d="M264.238 226.524V225.514C264.701 225.13 265.15 224.75 265.584 224.374C266.026 223.998 266.417 223.625 266.757 223.256C267.104 222.887 267.379 222.528 267.582 222.181C267.792 221.826 267.897 221.482 267.897 221.15C267.897 220.838 267.81 220.563 267.636 220.324C267.47 220.086 267.191 219.966 266.8 219.966C266.402 219.966 266.102 220.096 265.899 220.357C265.697 220.618 265.595 220.932 265.595 221.302H264.249C264.263 220.744 264.387 220.281 264.618 219.912C264.85 219.535 265.157 219.257 265.541 219.076C265.925 218.888 266.355 218.794 266.833 218.794C267.607 218.794 268.208 219.007 268.635 219.434C269.07 219.854 269.287 220.4 269.287 221.074C269.287 221.493 269.189 221.902 268.994 222.3C268.805 222.698 268.556 223.082 268.244 223.451C267.933 223.82 267.597 224.168 267.235 224.494C266.873 224.812 266.522 225.109 266.182 225.384H269.471V226.524H264.238Z" fill="#D9D9D9"/>
<path d="M305.681 226.654C305.182 226.654 304.729 226.567 304.324 226.394C303.919 226.213 303.593 225.938 303.347 225.568C303.101 225.199 302.971 224.736 302.956 224.179H304.324C304.331 224.548 304.451 224.859 304.682 225.112C304.921 225.358 305.254 225.482 305.681 225.482C306.087 225.482 306.398 225.369 306.615 225.145C306.832 224.921 306.941 224.638 306.941 224.298C306.941 223.9 306.796 223.6 306.506 223.397C306.224 223.187 305.859 223.082 305.41 223.082H304.845V221.942H305.421C305.79 221.942 306.097 221.855 306.344 221.682C306.59 221.508 306.713 221.251 306.713 220.911C306.713 220.628 306.619 220.404 306.43 220.238C306.249 220.064 305.996 219.977 305.67 219.977C305.316 219.977 305.037 220.082 304.834 220.292C304.639 220.502 304.53 220.759 304.509 221.063H303.152C303.18 220.361 303.423 219.807 303.879 219.402C304.342 218.996 304.939 218.794 305.67 218.794C306.192 218.794 306.629 218.888 306.984 219.076C307.346 219.257 307.617 219.499 307.798 219.803C307.987 220.107 308.081 220.444 308.081 220.813C308.081 221.24 307.961 221.602 307.722 221.899C307.491 222.188 307.201 222.384 306.854 222.485C307.281 222.572 307.628 222.782 307.896 223.115C308.164 223.44 308.298 223.853 308.298 224.352C308.298 224.772 308.196 225.156 307.994 225.503C307.791 225.851 307.494 226.129 307.104 226.339C306.72 226.549 306.246 226.654 305.681 226.654Z" fill="#D9D9D9"/>
<circle cx="66.5" cy="177.976" r="5.88095" fill="#F142A7"/>
<circle cx="107.214" cy="150.833" r="5.88095" fill="#F142A7"/>
<circle cx="145.214" cy="75.7381" r="5.88095" fill="#F142A7"/>
<circle cx="186.833" cy="57.6429" r="5.88095" fill="#F142A7"/>
<circle cx="226.643" cy="110.119" r="5.88095" fill="#F142A7"/>
<circle cx="266.452" cy="148.119" r="5.88095" fill="#F142A7"/>
<circle cx="305.357" cy="177.976" r="5.88095" fill="#F142A7"/>
<path d="M66.5 178.881L107.214 150.833L146.119 76.1905L185.476 58.5476L226.643 110.119L265.548 147.214L304.905 178.881" stroke="#F142A7" stroke-width="1.80952" stroke-dasharray="2.71 2.71"/>
</svg>
