<svg width="21" height="20" viewBox="0 0 21 20" fill="none" xmlns="http://www.w3.org/2000/svg">
<path d="M7.75001 20L7.35001 16.8C7.13335 16.7167 6.92901 16.6167 6.73701 16.5C6.54501 16.3833 6.35768 16.2583 6.17501 16.125L3.20001 17.375L0.450012 12.625L3.02501 10.675C3.00835 10.5583 3.00001 10.4457 3.00001 10.337V9.663C3.00001 9.55433 3.00835 9.44167 3.02501 9.325L0.450012 7.375L3.20001 2.625L6.17501 3.875C6.35835 3.74167 6.55001 3.61667 6.75001 3.5C6.95001 3.38333 7.15001 3.28333 7.35001 3.2L7.75001 0H13.25L13.65 3.2C13.8667 3.28333 14.071 3.38333 14.263 3.5C14.455 3.61667 14.6423 3.74167 14.825 3.875L17.8 2.625L20.55 7.375L17.975 9.325C17.9917 9.44167 18 9.55433 18 9.663V10.337C18 10.4457 17.9833 10.5583 17.95 10.675L20.525 12.625L17.775 17.375L14.825 16.125C14.6417 16.2583 14.45 16.3833 14.25 16.5C14.05 16.6167 13.85 16.7167 13.65 16.8L13.25 20H7.75001ZM10.55 13.5C11.5167 13.5 12.3417 13.1583 13.025 12.475C13.7083 11.7917 14.05 10.9667 14.05 10C14.05 9.03333 13.7083 8.20833 13.025 7.525C12.3417 6.84167 11.5167 6.5 10.55 6.5C9.56668 6.5 8.73735 6.84167 8.06201 7.525C7.38668 8.20833 7.04935 9.03333 7.05001 10C7.05001 10.9667 7.38735 11.7917 8.06201 12.475C8.73668 13.1583 9.56601 13.5 10.55 13.5Z" fill="#F4F4F4"/>
</svg>
