<svg width="25" height="18" viewBox="0 0 25 18" fill="none" xmlns="http://www.w3.org/2000/svg">
<path d="M12.5 6.12891C12.8984 6.12891 13.2695 6.20312 13.6133 6.35156C13.957 6.5 14.2617 6.70703 14.5273 6.97266C14.793 7.23828 14.9961 7.53906 15.1367 7.875C15.2773 8.21094 15.3555 8.58594 15.3711 9C15.3711 9.39844 15.2969 9.76953 15.1484 10.1133C15 10.457 14.793 10.7617 14.5273 11.0273C14.2617 11.293 13.9609 11.4961 13.625 11.6367C13.2891 11.7773 12.9141 11.8555 12.5 11.8711C12.1016 11.8711 11.7305 11.7969 11.3867 11.6484C11.043 11.5 10.7383 11.293 10.4727 11.0273C10.207 10.7617 10.0039 10.4609 9.86328 10.125C9.72266 9.78906 9.64453 9.41406 9.62891 9C9.62891 8.60156 9.70312 8.23047 9.85156 7.88672C10 7.54297 10.207 7.23828 10.4727 6.97266C10.7383 6.70703 11.0391 6.50391 11.375 6.36328C11.7109 6.22266 12.0859 6.14453 12.5 6.12891ZM12.5 10.6289C12.7266 10.6289 12.9375 10.5859 13.1328 10.5C13.3281 10.4141 13.5 10.3008 13.6484 10.1602C13.7969 10.0195 13.9141 9.84766 14 9.64453C14.0859 9.44141 14.1289 9.22656 14.1289 9C14.1289 8.77344 14.0859 8.5625 14 8.36719C13.9141 8.17188 13.8008 8 13.6602 7.85156C13.5195 7.70312 13.3477 7.58594 13.1445 7.5C12.9414 7.41406 12.7266 7.37109 12.5 7.37109C12.2734 7.37109 12.0625 7.41406 11.8672 7.5C11.6719 7.58594 11.5 7.69922 11.3516 7.83984C11.2031 7.98047 11.0859 8.15234 11 8.35547C10.9141 8.55859 10.8711 8.77344 10.8711 9C10.8711 9.22656 10.9141 9.4375 11 9.63281C11.0859 9.82812 11.1992 10 11.3398 10.1484C11.4805 10.2969 11.6523 10.4141 11.8555 10.5C12.0586 10.5859 12.2734 10.6289 12.5 10.6289ZM20.8906 0.609375C21.4531 1.16406 21.9492 1.76562 22.3789 2.41406C22.8086 3.0625 23.1719 3.74219 23.4688 4.45312C23.7656 5.16406 23.9883 5.90234 24.1367 6.66797C24.2852 7.43359 24.3633 8.21094 24.3711 9C24.3711 9.78906 24.2969 10.5664 24.1484 11.332C24 12.0977 23.7734 12.8359 23.4688 13.5469C23.1641 14.2578 22.8008 14.9375 22.3789 15.5859C21.957 16.2344 21.4609 16.8359 20.8906 17.3906L20.0117 16.5117C20.5117 16.0117 20.9531 15.4727 21.3359 14.8945C21.7188 14.3164 22.043 13.707 22.3086 13.0664C22.5742 12.4258 22.7734 11.7656 22.9062 11.0859C23.0391 10.4062 23.1094 9.71094 23.1172 9C23.1172 8.29688 23.0508 7.60547 22.918 6.92578C22.7852 6.24609 22.5859 5.58203 22.3203 4.93359C22.0547 4.28516 21.7305 3.67578 21.3477 3.10547C20.9648 2.53516 20.5195 1.99609 20.0117 1.48828L20.8906 0.609375ZM4.98828 1.48828C4.48828 1.98828 4.04688 2.52734 3.66406 3.10547C3.28125 3.68359 2.95312 4.29297 2.67969 4.93359C2.40625 5.57422 2.20703 6.23438 2.08203 6.91406C1.95703 7.59375 1.88672 8.28906 1.87109 9C1.87109 9.70312 1.9375 10.3945 2.07031 11.0742C2.20312 11.7539 2.40625 12.418 2.67969 13.0664C2.95312 13.7148 3.27734 14.3242 3.65234 14.8945C4.02734 15.4648 4.47266 16.0039 4.98828 16.5117L4.10938 17.3906C3.54688 16.8359 3.05078 16.2344 2.62109 15.5859C2.19141 14.9375 1.82812 14.2578 1.53125 13.5469C1.23438 12.8359 1.01172 12.0977 0.863281 11.332C0.714844 10.5664 0.636719 9.78906 0.628906 9C0.628906 8.21094 0.703125 7.43359 0.851562 6.66797C1 5.90234 1.22656 5.16406 1.53125 4.45312C1.83594 3.74219 2.19922 3.0625 2.62109 2.41406C3.04297 1.76562 3.53906 1.16406 4.10938 0.609375L4.98828 1.48828ZM17.7148 3.78516C18.4102 4.48828 18.9414 5.28516 19.3086 6.17578C19.6758 7.06641 19.8633 8.00781 19.8711 9C19.8711 9.98438 19.6875 10.9219 19.3203 11.8125C18.9531 12.7031 18.418 13.5039 17.7148 14.2148L16.8359 13.3359C17.4141 12.7578 17.8555 12.0977 18.1602 11.3555C18.4648 10.6133 18.6211 9.82812 18.6289 9C18.6289 8.17969 18.4766 7.39844 18.1719 6.65625C17.8672 5.91406 17.4219 5.25 16.8359 4.66406L17.7148 3.78516ZM8.16406 4.66406C7.58594 5.24219 7.14453 5.90234 6.83984 6.64453C6.53516 7.38672 6.37891 8.17188 6.37109 9C6.37109 9.82031 6.52344 10.6016 6.82812 11.3438C7.13281 12.0859 7.57812 12.75 8.16406 13.3359L7.28516 14.2148C6.58984 13.5117 6.05859 12.7148 5.69141 11.8242C5.32422 10.9336 5.13672 9.99219 5.12891 9C5.12891 8.01562 5.3125 7.07812 5.67969 6.1875C6.04688 5.29688 6.58203 4.49609 7.28516 3.78516L8.16406 4.66406Z" fill="#F4F4F4"/>
</svg>
