<svg width="17" height="20" viewBox="0 0 17 20" fill="none" xmlns="http://www.w3.org/2000/svg">
<path d="M5.5 12L11.5 6" stroke="#F4F4F4" stroke-width="2" stroke-linecap="round" stroke-linejoin="round"/>
<path d="M6 7C6.27614 7 6.5 6.77614 6.5 6.5C6.5 6.22386 6.27614 6 6 6C5.72386 6 5.5 6.22386 5.5 6.5C5.5 6.77614 5.72386 7 6 7Z" fill="#F4F4F4" stroke="#F4F4F4" stroke-width="2" stroke-linecap="round" stroke-linejoin="round"/>
<path d="M11 12C11.2761 12 11.5 11.7761 11.5 11.5C11.5 11.2239 11.2761 11 11 11C10.7239 11 10.5 11.2239 10.5 11.5C10.5 11.7761 10.7239 12 11 12Z" fill="#F4F4F4" stroke="#F4F4F4" stroke-width="2" stroke-linecap="round" stroke-linejoin="round"/>
<path d="M1.5 19V3C1.5 2.46957 1.71071 1.96086 2.08579 1.58579C2.46086 1.21071 2.96957 1 3.5 1H13.5C14.0304 1 14.5391 1.21071 14.9142 1.58579C15.2893 1.96086 15.5 2.46957 15.5 3V19L12.5 17L10.5 19L8.5 17L6.5 19L4.5 17L1.5 19Z" stroke="#F4F4F4" stroke-width="2" stroke-linecap="round" stroke-linejoin="round"/>
</svg>
