<svg width="21" height="16" viewBox="0 0 21 16" fill="none" xmlns="http://www.w3.org/2000/svg">
<path d="M9.5 13H11.5V8.8L13.1 10.4L14.5 9L10.5 5L6.5 9L7.9 10.4L9.5 8.8V13ZM2.5 16C1.95 16 1.479 15.804 1.087 15.412C0.695002 15.02 0.499335 14.5493 0.500002 14V2C0.500002 1.45 0.696002 0.979 1.088 0.587C1.48 0.195 1.95067 -0.000666876 2.5 -2.09555e-07H8.5L10.5 2H18.5C19.05 2 19.521 2.196 19.913 2.588C20.305 2.98 20.5007 3.45067 20.5 4V14C20.5 14.55 20.304 15.021 19.912 15.413C19.52 15.805 19.0493 16.0007 18.5 16H2.5ZM2.5 2V14H18.5V4H9.675L7.675 2H2.5Z" fill="#F4F4F4"/>
</svg>
