<svg width="338" height="230" viewBox="0 0 338 230" fill="none" xmlns="http://www.w3.org/2000/svg">
<line x1="37.1905" y1="168.25" x2="335.762" y2="168.25" stroke="#D9D9D9" stroke-width="0.452381" stroke-dasharray="0.9 0.9"/>
<line x1="37.1905" y1="95.8691" x2="335.762" y2="95.8691" stroke="#D9D9D9" stroke-width="0.452381" stroke-dasharray="0.9 0.9"/>
<line x1="37.1905" y1="132.06" x2="335.762" y2="132.06" stroke="#D9D9D9" stroke-width="0.452381" stroke-dasharray="0.9 0.9"/>
<line x1="37.1905" y1="59.6786" x2="335.762" y2="59.6786" stroke="#D9D9D9" stroke-width="0.452381" stroke-dasharray="0.9 0.9"/>
<line x1="37.1905" y1="23.4881" x2="335.762" y2="23.4881" stroke="#D9D9D9" stroke-width="0.452381" stroke-dasharray="0.9 0.9"/>
<rect x="38.0952" y="205.571" width="204.476" height="298.571" rx="14.4762" transform="rotate(-90 38.0952 205.571)" stroke="#858590" stroke-opacity="0.6" stroke-width="1.80952"/>
<path d="M52.5714 83.4286C52.5714 80.9301 54.5968 78.9048 57.0952 78.9048H78.8095C81.308 78.9048 83.3333 80.9301 83.3333 83.4286V204.667H52.5714V83.4286Z" fill="#9747FF"/>
<path d="M92.381 136.81C92.381 134.311 94.4063 132.286 96.9048 132.286H118.619C121.117 132.286 123.143 134.311 123.143 136.81V204.667H92.381V136.81Z" fill="#9747FF"/>
<path d="M132.19 150.381C132.19 147.883 134.216 145.857 136.714 145.857H158.429C160.927 145.857 162.952 147.883 162.952 150.381V204.667H132.19V150.381Z" fill="#9747FF"/>
<path d="M172 125.048C172 122.549 174.025 120.524 176.524 120.524H198.238C200.737 120.524 202.762 122.549 202.762 125.048V204.667H172V125.048Z" fill="#9747FF"/>
<path d="M211.81 99.7143C211.81 97.2159 213.835 95.1905 216.333 95.1905H238.048C240.546 95.1905 242.571 97.2159 242.571 99.7143V204.667H211.81V99.7143Z" fill="#9747FF"/>
<path d="M251.619 76.1905C251.619 73.692 253.644 71.6667 256.143 71.6667H277.857C280.356 71.6667 282.381 73.692 282.381 76.1905V204.667H251.619V76.1905Z" fill="#9747FF"/>
<path d="M291.429 49.0476C291.429 46.5492 293.454 44.5238 295.952 44.5238H317.667C320.165 44.5238 322.19 46.5492 322.19 49.0476V204.667H291.429V49.0476Z" fill="#9747FF"/>
<path d="M67.9274 226.654C67.37 226.654 66.8778 226.56 66.4508 226.372C66.0237 226.176 65.6872 225.901 65.4411 225.547C65.195 225.185 65.0683 224.747 65.0611 224.233H66.5268C66.5413 224.588 66.6679 224.888 66.9068 225.134C67.1529 225.373 67.4894 225.492 67.9165 225.492C68.2856 225.492 68.5788 225.406 68.7959 225.232C69.0131 225.051 69.1216 224.812 69.1216 224.515C69.1216 224.204 69.0239 223.962 68.8285 223.788C68.6403 223.614 68.387 223.473 68.0685 223.364C67.75 223.256 67.4098 223.14 67.0479 223.017C66.4616 222.814 66.0129 222.554 65.7016 222.235C65.3976 221.917 65.2456 221.493 65.2456 220.965C65.2384 220.516 65.3434 220.133 65.5605 219.814C65.7849 219.488 66.0889 219.239 66.4725 219.065C66.8561 218.884 67.2976 218.794 67.7971 218.794C68.3037 218.794 68.7489 218.884 69.1325 219.065C69.5234 219.246 69.8274 219.499 70.0445 219.825C70.2689 220.151 70.3883 220.538 70.4028 220.987H68.9154C68.9081 220.719 68.8032 220.484 68.6005 220.281C68.4051 220.071 68.13 219.966 67.7754 219.966C67.4714 219.959 67.2144 220.035 67.0045 220.194C66.8018 220.346 66.7005 220.57 66.7005 220.867C66.7005 221.121 66.7801 221.323 66.9394 221.475C67.0986 221.62 67.3157 221.743 67.5908 221.844C67.8658 221.946 68.1807 222.054 68.5354 222.17C68.9117 222.3 69.2555 222.452 69.5668 222.626C69.878 222.8 70.1277 223.031 70.3159 223.321C70.5041 223.603 70.5982 223.969 70.5982 224.418C70.5982 224.816 70.4969 225.185 70.2942 225.525C70.0915 225.865 69.7912 226.14 69.3931 226.35C68.995 226.553 68.5064 226.654 67.9274 226.654Z" fill="#D9D9D9"/>
<path d="M6.24165 172.238V165.659L5.01479 165.93V165.3L6.54565 164.638H7.16451V172.238H6.24165ZM11.7327 172.368C11.0596 172.368 10.4769 172.206 9.98474 171.88C9.49978 171.547 9.12702 171.087 8.86645 170.501C8.60588 169.907 8.47559 169.22 8.47559 168.438C8.47559 167.656 8.60588 166.972 8.86645 166.386C9.12702 165.793 9.49978 165.333 9.98474 165.007C10.4769 164.674 11.0596 164.508 11.7327 164.508C12.4059 164.508 12.9849 164.674 13.4699 165.007C13.9548 165.333 14.3276 165.793 14.5882 166.386C14.8487 166.972 14.979 167.656 14.979 168.438C14.979 169.22 14.8487 169.907 14.5882 170.501C14.3276 171.087 13.9548 171.547 13.4699 171.88C12.9849 172.206 12.4059 172.368 11.7327 172.368ZM11.7327 171.565C12.1743 171.565 12.5687 171.442 12.9162 171.196C13.2708 170.942 13.5459 170.584 13.7413 170.121C13.944 169.65 14.0453 169.09 14.0453 168.438C14.0453 167.787 13.944 167.229 13.7413 166.766C13.5459 166.303 13.2708 165.948 12.9162 165.702C12.5687 165.449 12.1743 165.322 11.7327 165.322C11.284 165.322 10.8859 165.449 10.5385 165.702C10.191 165.948 9.91598 166.303 9.71331 166.766C9.51064 167.229 9.40931 167.787 9.40931 168.438C9.40931 169.09 9.51064 169.65 9.71331 170.121C9.91598 170.584 10.191 170.942 10.5385 171.196C10.8859 171.442 11.284 171.565 11.7327 171.565ZM19.2606 172.368C18.5875 172.368 18.0048 172.206 17.5126 171.88C17.0277 171.547 16.6549 171.087 16.3944 170.501C16.1338 169.907 16.0035 169.22 16.0035 168.438C16.0035 167.656 16.1338 166.972 16.3944 166.386C16.6549 165.793 17.0277 165.333 17.5126 165.007C18.0048 164.674 18.5875 164.508 19.2606 164.508C19.9338 164.508 20.5128 164.674 20.9978 165.007C21.4827 165.333 21.8555 165.793 22.1161 166.386C22.3766 166.972 22.5069 167.656 22.5069 168.438C22.5069 169.22 22.3766 169.907 22.1161 170.501C21.8555 171.087 21.4827 171.547 20.9978 171.88C20.5128 172.206 19.9338 172.368 19.2606 172.368ZM19.2606 171.565C19.7022 171.565 20.0966 171.442 20.4441 171.196C20.7987 170.942 21.0738 170.584 21.2692 170.121C21.4719 169.65 21.5732 169.09 21.5732 168.438C21.5732 167.787 21.4719 167.229 21.2692 166.766C21.0738 166.303 20.7987 165.948 20.4441 165.702C20.0966 165.449 19.7022 165.322 19.2606 165.322C18.8119 165.322 18.4138 165.449 18.0664 165.702C17.7189 165.948 17.4439 166.303 17.2412 166.766C17.0385 167.229 16.9372 167.787 16.9372 168.438C16.9372 169.09 17.0385 169.65 17.2412 170.121C17.4439 170.584 17.7189 170.942 18.0664 171.196C18.4138 171.442 18.8119 171.565 19.2606 171.565ZM26.7885 172.368C26.1154 172.368 25.5327 172.206 25.0405 171.88C24.5556 171.547 24.1828 171.087 23.9223 170.501C23.6617 169.907 23.5314 169.22 23.5314 168.438C23.5314 167.656 23.6617 166.972 23.9223 166.386C24.1828 165.793 24.5556 165.333 25.0405 165.007C25.5327 164.674 26.1154 164.508 26.7885 164.508C27.4617 164.508 28.0407 164.674 28.5257 165.007C29.0106 165.333 29.3834 165.793 29.644 166.386C29.9045 166.972 30.0348 167.656 30.0348 168.438C30.0348 169.22 29.9045 169.907 29.644 170.501C29.3834 171.087 29.0106 171.547 28.5257 171.88C28.0407 172.206 27.4617 172.368 26.7885 172.368ZM26.7885 171.565C27.2301 171.565 27.6245 171.442 27.972 171.196C28.3266 170.942 28.6017 170.584 28.7971 170.121C28.9998 169.65 29.1011 169.09 29.1011 168.438C29.1011 167.787 28.9998 167.229 28.7971 166.766C28.6017 166.303 28.3266 165.948 27.972 165.702C27.6245 165.449 27.2301 165.322 26.7885 165.322C26.3398 165.322 25.9417 165.449 25.5943 165.702C25.2468 165.948 24.9718 166.303 24.7691 166.766C24.5664 167.229 24.4651 167.787 24.4651 168.438C24.4651 169.09 24.5664 169.65 24.7691 170.121C24.9718 170.584 25.2468 170.942 25.5943 171.196C25.9417 171.442 26.3398 171.565 26.7885 171.565Z" fill="#D9D9D9"/>
<path d="M2.74334 136.048V135.407C3.25724 135.002 3.74219 134.593 4.19819 134.18C4.66143 133.76 5.07039 133.348 5.42505 132.942C5.78696 132.537 6.06924 132.139 6.27191 131.748C6.48181 131.357 6.58677 130.981 6.58677 130.619C6.58677 130.351 6.53972 130.102 6.44562 129.87C6.35877 129.638 6.214 129.454 6.01134 129.316C5.80867 129.171 5.53362 129.099 5.1862 129.099C4.85324 129.099 4.57458 129.175 4.35019 129.327C4.12581 129.472 3.95572 129.667 3.83991 129.913C3.73134 130.159 3.67705 130.424 3.67705 130.706H2.79762C2.79762 130.206 2.90258 129.779 3.11248 129.425C3.32239 129.063 3.60829 128.788 3.9702 128.6C4.3321 128.411 4.74105 128.317 5.19705 128.317C5.8702 128.317 6.42029 128.509 6.84734 128.893C7.28162 129.269 7.49877 129.834 7.49877 130.586C7.49877 131.035 7.38658 131.48 7.1622 131.922C6.93781 132.356 6.65191 132.78 6.30448 133.192C5.95705 133.598 5.58429 133.978 5.1862 134.332C4.79534 134.687 4.42981 135.005 4.08962 135.288H7.75934V136.048H2.74334ZM11.9339 136.178C11.2608 136.178 10.6781 136.015 10.1859 135.689C9.70096 135.356 9.3282 134.897 9.06762 134.31C8.80705 133.717 8.67677 133.029 8.67677 132.248C8.67677 131.466 8.80705 130.782 9.06762 130.196C9.3282 129.602 9.70096 129.142 10.1859 128.817C10.6781 128.484 11.2608 128.317 11.9339 128.317C12.6071 128.317 13.1861 128.484 13.6711 128.817C14.156 129.142 14.5288 129.602 14.7893 130.196C15.0499 130.782 15.1802 131.466 15.1802 132.248C15.1802 133.029 15.0499 133.717 14.7893 134.31C14.5288 134.897 14.156 135.356 13.6711 135.689C13.1861 136.015 12.6071 136.178 11.9339 136.178ZM11.9339 135.374C12.3754 135.374 12.7699 135.251 13.1173 135.005C13.472 134.752 13.7471 134.394 13.9425 133.93C14.1451 133.46 14.2465 132.899 14.2465 132.248C14.2465 131.596 14.1451 131.039 13.9425 130.576C13.7471 130.112 13.472 129.758 13.1173 129.512C12.7699 129.258 12.3754 129.132 11.9339 129.132C11.4851 129.132 11.0871 129.258 10.7396 129.512C10.3922 129.758 10.1171 130.112 9.91448 130.576C9.71181 131.039 9.61048 131.596 9.61048 132.248C9.61048 132.899 9.71181 133.46 9.91448 133.93C10.1171 134.394 10.3922 134.752 10.7396 135.005C11.0871 135.251 11.4851 135.374 11.9339 135.374ZM19.4618 136.178C18.7887 136.178 18.206 136.015 17.7138 135.689C17.2289 135.356 16.8561 134.897 16.5955 134.31C16.335 133.717 16.2047 133.029 16.2047 132.248C16.2047 131.466 16.335 130.782 16.5955 130.196C16.8561 129.602 17.2289 129.142 17.7138 128.817C18.206 128.484 18.7887 128.317 19.4618 128.317C20.135 128.317 20.714 128.484 21.199 128.817C21.6839 129.142 22.0567 129.602 22.3172 130.196C22.5778 130.782 22.7081 131.466 22.7081 132.248C22.7081 133.029 22.5778 133.717 22.3172 134.31C22.0567 134.897 21.6839 135.356 21.199 135.689C20.714 136.015 20.135 136.178 19.4618 136.178ZM19.4618 135.374C19.9033 135.374 20.2978 135.251 20.6452 135.005C20.9999 134.752 21.275 134.394 21.4704 133.93C21.6731 133.46 21.7744 132.899 21.7744 132.248C21.7744 131.596 21.6731 131.039 21.4704 130.576C21.275 130.112 20.9999 129.758 20.6452 129.512C20.2978 129.258 19.9033 129.132 19.4618 129.132C19.0131 129.132 18.615 129.258 18.2675 129.512C17.9201 129.758 17.6451 130.112 17.4424 130.576C17.2397 131.039 17.1384 131.596 17.1384 132.248C17.1384 132.899 17.2397 133.46 17.4424 133.93C17.6451 134.394 17.9201 134.752 18.2675 135.005C18.615 135.251 19.0131 135.374 19.4618 135.374ZM26.9897 136.178C26.3166 136.178 25.7339 136.015 25.2417 135.689C24.7568 135.356 24.384 134.897 24.1234 134.31C23.8629 133.717 23.7326 133.029 23.7326 132.248C23.7326 131.466 23.8629 130.782 24.1234 130.196C24.384 129.602 24.7568 129.142 25.2417 128.817C25.7339 128.484 26.3166 128.317 26.9897 128.317C27.6629 128.317 28.2419 128.484 28.7269 128.817C29.2118 129.142 29.5846 129.602 29.8451 130.196C30.1057 130.782 30.236 131.466 30.236 132.248C30.236 133.029 30.1057 133.717 29.8451 134.31C29.5846 134.897 29.2118 135.356 28.7269 135.689C28.2419 136.015 27.6629 136.178 26.9897 136.178ZM26.9897 135.374C27.4312 135.374 27.8257 135.251 28.1731 135.005C28.5278 134.752 28.8029 134.394 28.9983 133.93C29.201 133.46 29.3023 132.899 29.3023 132.248C29.3023 131.596 29.201 131.039 28.9983 130.576C28.8029 130.112 28.5278 129.758 28.1731 129.512C27.8257 129.258 27.4312 129.132 26.9897 129.132C26.541 129.132 26.1429 129.258 25.7954 129.512C25.448 129.758 25.173 130.112 24.9703 130.576C24.7676 131.039 24.6663 131.596 24.6663 132.248C24.6663 132.899 24.7676 133.46 24.9703 133.93C25.173 134.394 25.448 134.752 25.7954 135.005C26.1429 135.251 26.541 135.374 26.9897 135.374Z" fill="#D9D9D9"/>
<path d="M4.18703 99.9874C3.70207 99.9874 3.26417 99.9006 2.87331 99.7269C2.48246 99.5459 2.1676 99.2781 1.92874 98.9234C1.69712 98.5688 1.57407 98.1272 1.5596 97.5989H2.48246C2.48969 98.0331 2.64169 98.4095 2.93846 98.728C3.23522 99.0392 3.65141 99.1949 4.18703 99.1949C4.72265 99.1949 5.12436 99.0465 5.39217 98.7497C5.66722 98.453 5.80474 98.0947 5.80474 97.6749C5.80474 97.3202 5.71788 97.0307 5.54417 96.8063C5.37769 96.5819 5.14969 96.4154 4.86017 96.3069C4.57788 96.1983 4.26665 96.144 3.92646 96.144H3.36188V95.3731H3.92646C4.41865 95.3731 4.80227 95.261 5.07731 95.0366C5.3596 94.8122 5.50074 94.4973 5.50074 94.092C5.50074 93.7518 5.38855 93.4731 5.16417 93.256C4.94703 93.0316 4.62131 92.9194 4.18703 92.9194C3.76722 92.9194 3.43065 93.0461 3.17731 93.2994C2.92398 93.5455 2.78284 93.8568 2.75388 94.2331H1.83103C1.85274 93.8206 1.96131 93.4551 2.15674 93.1366C2.35941 92.8181 2.63446 92.572 2.98188 92.3983C3.32931 92.2173 3.73103 92.1269 4.18703 92.1269C4.67922 92.1269 5.08817 92.2137 5.41388 92.3874C5.74684 92.5611 5.99655 92.7928 6.16303 93.0823C6.33674 93.3718 6.4236 93.6903 6.4236 94.0377C6.4236 94.4213 6.31865 94.7724 6.10874 95.0909C5.89884 95.4021 5.58398 95.612 5.16417 95.7206C5.61293 95.8147 5.98569 96.0282 6.28246 96.3611C6.57922 96.6941 6.7276 97.132 6.7276 97.6749C6.7276 98.0947 6.62988 98.4819 6.43446 98.8366C6.24627 99.184 5.96398 99.4627 5.5876 99.6726C5.21122 99.8825 4.74436 99.9874 4.18703 99.9874ZM11.167 99.9874C10.4938 99.9874 9.91117 99.8246 9.41898 99.4989C8.93403 99.1659 8.56127 98.7063 8.3007 98.12C8.04013 97.5265 7.90984 96.8389 7.90984 96.0571C7.90984 95.2754 8.04013 94.5914 8.3007 94.0051C8.56127 93.4116 8.93403 92.952 9.41898 92.6263C9.91117 92.2933 10.4938 92.1269 11.167 92.1269C11.8401 92.1269 12.4192 92.2933 12.9041 92.6263C13.3891 92.952 13.7618 93.4116 14.0224 94.0051C14.283 94.5914 14.4133 95.2754 14.4133 96.0571C14.4133 96.8389 14.283 97.5265 14.0224 98.12C13.7618 98.7063 13.3891 99.1659 12.9041 99.4989C12.4192 99.8246 11.8401 99.9874 11.167 99.9874ZM11.167 99.184C11.6085 99.184 12.003 99.061 12.3504 98.8149C12.7051 98.5615 12.9801 98.2032 13.1756 97.74C13.3782 97.2695 13.4796 96.7086 13.4796 96.0571C13.4796 95.4057 13.3782 94.8484 13.1756 94.3851C12.9801 93.9219 12.7051 93.5672 12.3504 93.3211C12.003 93.0678 11.6085 92.9411 11.167 92.9411C10.7182 92.9411 10.3201 93.0678 9.9727 93.3211C9.62527 93.5672 9.35022 93.9219 9.14755 94.3851C8.94489 94.8484 8.84355 95.4057 8.84355 96.0571C8.84355 96.7086 8.94489 97.2695 9.14755 97.74C9.35022 98.2032 9.62527 98.5615 9.9727 98.8149C10.3201 99.061 10.7182 99.184 11.167 99.184ZM18.6949 99.9874C18.0217 99.9874 17.4391 99.8246 16.9469 99.4989C16.4619 99.1659 16.0892 98.7063 15.8286 98.12C15.568 97.5265 15.4377 96.8389 15.4377 96.0571C15.4377 95.2754 15.568 94.5914 15.8286 94.0051C16.0892 93.4116 16.4619 92.952 16.9469 92.6263C17.4391 92.2933 18.0217 92.1269 18.6949 92.1269C19.368 92.1269 19.9471 92.2933 20.432 92.6263C20.917 92.952 21.2897 93.4116 21.5503 94.0051C21.8109 94.5914 21.9412 95.2754 21.9412 96.0571C21.9412 96.8389 21.8109 97.5265 21.5503 98.12C21.2897 98.7063 20.917 99.1659 20.432 99.4989C19.9471 99.8246 19.368 99.9874 18.6949 99.9874ZM18.6949 99.184C19.1364 99.184 19.5309 99.061 19.8783 98.8149C20.233 98.5615 20.508 98.2032 20.7035 97.74C20.9061 97.2695 21.0075 96.7086 21.0075 96.0571C21.0075 95.4057 20.9061 94.8484 20.7035 94.3851C20.508 93.9219 20.233 93.5672 19.8783 93.3211C19.5309 93.0678 19.1364 92.9411 18.6949 92.9411C18.2461 92.9411 17.848 93.0678 17.5006 93.3211C17.1532 93.5672 16.8781 93.9219 16.6755 94.3851C16.4728 94.8484 16.3715 95.4057 16.3715 96.0571C16.3715 96.7086 16.4728 97.2695 16.6755 97.74C16.8781 98.2032 17.1532 98.5615 17.5006 98.8149C17.848 99.061 18.2461 99.184 18.6949 99.184ZM26.2228 99.9874C25.5496 99.9874 24.967 99.8246 24.4748 99.4989C23.9898 99.1659 23.6171 98.7063 23.3565 98.12C23.0959 97.5265 22.9656 96.8389 22.9656 96.0571C22.9656 95.2754 23.0959 94.5914 23.3565 94.0051C23.6171 93.4116 23.9898 92.952 24.4748 92.6263C24.967 92.2933 25.5496 92.1269 26.2228 92.1269C26.8959 92.1269 27.475 92.2933 27.9599 92.6263C28.4449 92.952 28.8176 93.4116 29.0782 94.0051C29.3388 94.5914 29.4691 95.2754 29.4691 96.0571C29.4691 96.8389 29.3388 97.5265 29.0782 98.12C28.8176 98.7063 28.4449 99.1659 27.9599 99.4989C27.475 99.8246 26.8959 99.9874 26.2228 99.9874ZM26.2228 99.184C26.6643 99.184 27.0588 99.061 27.4062 98.8149C27.7609 98.5615 28.0359 98.2032 28.2314 97.74C28.434 97.2695 28.5354 96.7086 28.5354 96.0571C28.5354 95.4057 28.434 94.8484 28.2314 94.3851C28.0359 93.9219 27.7609 93.5672 27.4062 93.3211C27.0588 93.0678 26.6643 92.9411 26.2228 92.9411C25.774 92.9411 25.3759 93.0678 25.0285 93.3211C24.6811 93.5672 24.406 93.9219 24.2034 94.3851C24.0007 94.8484 23.8994 95.4057 23.8994 96.0571C23.8994 96.7086 24.0007 97.2695 24.2034 97.74C24.406 98.2032 24.6811 98.5615 25.0285 98.8149C25.3759 99.061 25.774 99.184 26.2228 99.184Z" fill="#D9D9D9"/>
<path d="M4.66646 63.6667V62.0381H0.812173V61.3324L4.5036 56.0667H5.5676V61.2347H6.69675V62.0381H5.5676V63.6667H4.66646ZM1.82189 61.2347H4.70989V57.0764L1.82189 61.2347ZM10.7624 63.7969C10.0893 63.7969 9.5066 63.6341 9.01441 63.3084C8.52945 62.9754 8.15669 62.5158 7.89612 61.9295C7.63555 61.336 7.50526 60.6484 7.50526 59.8667C7.50526 59.0849 7.63555 58.4009 7.89612 57.8147C8.15669 57.2211 8.52945 56.7615 9.01441 56.4358C9.5066 56.1028 10.0893 55.9364 10.7624 55.9364C11.4355 55.9364 12.0146 56.1028 12.4995 56.4358C12.9845 56.7615 13.3573 57.2211 13.6178 57.8147C13.8784 58.4009 14.0087 59.0849 14.0087 59.8667C14.0087 60.6484 13.8784 61.336 13.6178 61.9295C13.3573 62.5158 12.9845 62.9754 12.4995 63.3084C12.0146 63.6341 11.4355 63.7969 10.7624 63.7969ZM10.7624 62.9935C11.2039 62.9935 11.5984 62.8705 11.9458 62.6244C12.3005 62.371 12.5755 62.0128 12.771 61.5495C12.9736 61.079 13.075 60.5181 13.075 59.8667C13.075 59.2152 12.9736 58.6579 12.771 58.1947C12.5755 57.7314 12.3005 57.3768 11.9458 57.1307C11.5984 56.8773 11.2039 56.7507 10.7624 56.7507C10.3136 56.7507 9.91555 56.8773 9.56812 57.1307C9.22069 57.3768 8.94564 57.7314 8.74298 58.1947C8.54031 58.6579 8.43898 59.2152 8.43898 59.8667C8.43898 60.5181 8.54031 61.079 8.74298 61.5495C8.94564 62.0128 9.22069 62.371 9.56812 62.6244C9.91555 62.8705 10.3136 62.9935 10.7624 62.9935ZM18.2903 63.7969C17.6172 63.7969 17.0345 63.6341 16.5423 63.3084C16.0574 62.9754 15.6846 62.5158 15.424 61.9295C15.1635 61.336 15.0332 60.6484 15.0332 59.8667C15.0332 59.0849 15.1635 58.4009 15.424 57.8147C15.6846 57.2211 16.0574 56.7615 16.5423 56.4358C17.0345 56.1028 17.6172 55.9364 18.2903 55.9364C18.9635 55.9364 19.5425 56.1028 20.0275 56.4358C20.5124 56.7615 20.8852 57.2211 21.1457 57.8147C21.4063 58.4009 21.5366 59.0849 21.5366 59.8667C21.5366 60.6484 21.4063 61.336 21.1457 61.9295C20.8852 62.5158 20.5124 62.9754 20.0275 63.3084C19.5425 63.6341 18.9635 63.7969 18.2903 63.7969ZM18.2903 62.9935C18.7318 62.9935 19.1263 62.8705 19.4737 62.6244C19.8284 62.371 20.1035 62.0128 20.2989 61.5495C20.5015 61.079 20.6029 60.5181 20.6029 59.8667C20.6029 59.2152 20.5015 58.6579 20.2989 58.1947C20.1035 57.7314 19.8284 57.3768 19.4737 57.1307C19.1263 56.8773 18.7318 56.7507 18.2903 56.7507C17.8415 56.7507 17.4435 56.8773 17.096 57.1307C16.7486 57.3768 16.4735 57.7314 16.2709 58.1947C16.0682 58.6579 15.9669 59.2152 15.9669 59.8667C15.9669 60.5181 16.0682 61.079 16.2709 61.5495C16.4735 62.0128 16.7486 62.371 17.096 62.6244C17.4435 62.8705 17.8415 62.9935 18.2903 62.9935ZM25.8182 63.7969C25.1451 63.7969 24.5624 63.6341 24.0702 63.3084C23.5853 62.9754 23.2125 62.5158 22.9519 61.9295C22.6914 61.336 22.5611 60.6484 22.5611 59.8667C22.5611 59.0849 22.6914 58.4009 22.9519 57.8147C23.2125 57.2211 23.5853 56.7615 24.0702 56.4358C24.5624 56.1028 25.1451 55.9364 25.8182 55.9364C26.4914 55.9364 27.0704 56.1028 27.5554 56.4358C28.0403 56.7615 28.4131 57.2211 28.6736 57.8147C28.9342 58.4009 29.0645 59.0849 29.0645 59.8667C29.0645 60.6484 28.9342 61.336 28.6736 61.9295C28.4131 62.5158 28.0403 62.9754 27.5554 63.3084C27.0704 63.6341 26.4914 63.7969 25.8182 63.7969ZM25.8182 62.9935C26.2597 62.9935 26.6542 62.8705 27.0016 62.6244C27.3563 62.371 27.6314 62.0128 27.8268 61.5495C28.0294 61.079 28.1308 60.5181 28.1308 59.8667C28.1308 59.2152 28.0294 58.6579 27.8268 58.1947C27.6314 57.7314 27.3563 57.3768 27.0016 57.1307C26.6542 56.8773 26.2597 56.7507 25.8182 56.7507C25.3694 56.7507 24.9714 56.8773 24.6239 57.1307C24.2765 57.3768 24.0014 57.7314 23.7988 58.1947C23.5961 58.6579 23.4948 59.2152 23.4948 59.8667C23.4948 60.5181 23.5961 61.079 23.7988 61.5495C24.0014 62.0128 24.2765 62.371 24.6239 62.6244C24.9714 62.8705 25.3694 62.9935 25.8182 62.9935Z" fill="#D9D9D9"/>
<path d="M3.77164 27.6065C3.25049 27.6065 2.79811 27.5124 2.41449 27.3242C2.03087 27.136 1.72325 26.8791 1.49164 26.5533C1.26725 26.2204 1.12973 25.844 1.07906 25.4242H1.96935C2.05621 25.844 2.25887 26.1842 2.57735 26.4448C2.89583 26.6981 3.29754 26.8248 3.78249 26.8248C4.1444 26.8248 4.45564 26.7415 4.71621 26.5751C4.97678 26.4013 5.17583 26.1697 5.31335 25.8802C5.45811 25.5907 5.53049 25.2686 5.53049 24.9139C5.53049 24.3493 5.37125 23.8933 5.05278 23.5459C4.7343 23.1985 4.32173 23.0248 3.81506 23.0248C3.39525 23.0248 3.03697 23.1189 2.74021 23.3071C2.44345 23.4952 2.2263 23.7413 2.08878 24.0453H1.22021L1.87164 19.8762H5.85621V20.6688H2.57735L2.13221 22.9813C2.30592 22.7714 2.54478 22.5977 2.84878 22.4602C3.16002 22.3227 3.51468 22.2539 3.91278 22.2539C4.41221 22.2539 4.84649 22.3697 5.21564 22.6013C5.59202 22.833 5.88516 23.1478 6.09506 23.5459C6.30497 23.944 6.40992 24.3964 6.40992 24.9031C6.40992 25.388 6.30497 25.8368 6.09506 26.2493C5.8924 26.6619 5.59202 26.9912 5.19392 27.2373C4.80306 27.4834 4.32897 27.6065 3.77164 27.6065ZM10.7995 27.6065C10.1264 27.6065 9.54371 27.4436 9.05152 27.1179C8.56656 26.785 8.1938 26.3253 7.93323 25.7391C7.67266 25.1455 7.54237 24.4579 7.54237 23.6762C7.54237 22.8945 7.67266 22.2105 7.93323 21.6242C8.1938 21.0307 8.56656 20.5711 9.05152 20.2453C9.54371 19.9124 10.1264 19.7459 10.7995 19.7459C11.4727 19.7459 12.0517 19.9124 12.5367 20.2453C13.0216 20.5711 13.3944 21.0307 13.6549 21.6242C13.9155 22.2105 14.0458 22.8945 14.0458 23.6762C14.0458 24.4579 13.9155 25.1455 13.6549 25.7391C13.3944 26.3253 13.0216 26.785 12.5367 27.1179C12.0517 27.4436 11.4727 27.6065 10.7995 27.6065ZM10.7995 26.8031C11.241 26.8031 11.6355 26.68 11.9829 26.4339C12.3376 26.1806 12.6127 25.8223 12.8081 25.3591C13.0108 24.8886 13.1121 24.3276 13.1121 23.6762C13.1121 23.0248 13.0108 22.4674 12.8081 22.0042C12.6127 21.541 12.3376 21.1863 11.9829 20.9402C11.6355 20.6869 11.241 20.5602 10.7995 20.5602C10.3508 20.5602 9.95266 20.6869 9.60523 20.9402C9.2578 21.1863 8.98275 21.541 8.78009 22.0042C8.57742 22.4674 8.47609 23.0248 8.47609 23.6762C8.47609 24.3276 8.57742 24.8886 8.78009 25.3591C8.98275 25.8223 9.2578 26.1806 9.60523 26.4339C9.95266 26.68 10.3508 26.8031 10.7995 26.8031ZM18.3274 27.6065C17.6543 27.6065 17.0716 27.4436 16.5794 27.1179C16.0945 26.785 15.7217 26.3253 15.4611 25.7391C15.2006 25.1455 15.0703 24.4579 15.0703 23.6762C15.0703 22.8945 15.2006 22.2105 15.4611 21.6242C15.7217 21.0307 16.0945 20.5711 16.5794 20.2453C17.0716 19.9124 17.6543 19.7459 18.3274 19.7459C19.0006 19.7459 19.5796 19.9124 20.0646 20.2453C20.5495 20.5711 20.9223 21.0307 21.1828 21.6242C21.4434 22.2105 21.5737 22.8945 21.5737 23.6762C21.5737 24.4579 21.4434 25.1455 21.1828 25.7391C20.9223 26.3253 20.5495 26.785 20.0646 27.1179C19.5796 27.4436 19.0006 27.6065 18.3274 27.6065ZM18.3274 26.8031C18.7689 26.8031 19.1634 26.68 19.5108 26.4339C19.8655 26.1806 20.1406 25.8223 20.336 25.3591C20.5387 24.8886 20.64 24.3276 20.64 23.6762C20.64 23.0248 20.5387 22.4674 20.336 22.0042C20.1406 21.541 19.8655 21.1863 19.5108 20.9402C19.1634 20.6869 18.7689 20.5602 18.3274 20.5602C17.8787 20.5602 17.4806 20.6869 17.1331 20.9402C16.7857 21.1863 16.5107 21.541 16.308 22.0042C16.1053 22.4674 16.004 23.0248 16.004 23.6762C16.004 24.3276 16.1053 24.8886 16.308 25.3591C16.5107 25.8223 16.7857 26.1806 17.1331 26.4339C17.4806 26.68 17.8787 26.8031 18.3274 26.8031ZM25.8553 27.6065C25.1822 27.6065 24.5995 27.4436 24.1073 27.1179C23.6224 26.785 23.2496 26.3253 22.989 25.7391C22.7285 25.1455 22.5982 24.4579 22.5982 23.6762C22.5982 22.8945 22.7285 22.2105 22.989 21.6242C23.2496 21.0307 23.6224 20.5711 24.1073 20.2453C24.5995 19.9124 25.1822 19.7459 25.8553 19.7459C26.5285 19.7459 27.1075 19.9124 27.5925 20.2453C28.0774 20.5711 28.4502 21.0307 28.7107 21.6242C28.9713 22.2105 29.1016 22.8945 29.1016 23.6762C29.1016 24.4579 28.9713 25.1455 28.7107 25.7391C28.4502 26.3253 28.0774 26.785 27.5925 27.1179C27.1075 27.4436 26.5285 27.6065 25.8553 27.6065ZM25.8553 26.8031C26.2968 26.8031 26.6913 26.68 27.0387 26.4339C27.3934 26.1806 27.6685 25.8223 27.8639 25.3591C28.0666 24.8886 28.1679 24.3276 28.1679 23.6762C28.1679 23.0248 28.0666 22.4674 27.8639 22.0042C27.6685 21.541 27.3934 21.1863 27.0387 20.9402C26.6913 20.6869 26.2968 20.5602 25.8553 20.5602C25.4066 20.5602 25.0085 20.6869 24.661 20.9402C24.3136 21.1863 24.0386 21.541 23.8359 22.0042C23.6332 22.4674 23.5319 23.0248 23.5319 23.6762C23.5319 24.3276 23.6332 24.8886 23.8359 25.3591C24.0386 25.8223 24.3136 26.1806 24.661 26.4339C25.0085 26.68 25.4066 26.8031 25.8553 26.8031Z" fill="#D9D9D9"/>
<path d="M103.184 226.524V218.924H104.834L107.255 223.744L109.644 218.924H111.294V226.524H109.905V221.28L107.787 225.438H106.691L104.574 221.28V226.524H103.184Z" fill="#D9D9D9"/>
<path d="M146.753 226.524V220.042H144.538V218.924H150.368V220.042H148.143V226.524H146.753Z" fill="#D9D9D9"/>
<path d="M184.251 226.524L182.242 218.924H183.73L185.098 224.971L186.705 218.924H188.235L189.799 224.971L191.167 218.924H192.665L190.602 226.524H188.952L187.443 220.889L185.89 226.524H184.251Z" fill="#D9D9D9"/>
<path d="M222.92 226.524V220.042H220.705V218.924H226.536V220.042H224.31V226.524H222.92ZM227.565 226.524V218.924H228.955V222.083H232.364V218.924H233.754V226.524H232.364V223.212H228.955V226.524H227.565Z" fill="#D9D9D9"/>
<path d="M265.034 226.524V218.924H269.941V220.042H266.424V222.17H269.268V223.267H266.424V226.524H265.034Z" fill="#D9D9D9"/>
<path d="M306.785 226.654C306.227 226.654 305.735 226.56 305.308 226.372C304.881 226.176 304.544 225.901 304.298 225.547C304.052 225.185 303.925 224.747 303.918 224.233H305.384C305.398 224.588 305.525 224.888 305.764 225.134C306.01 225.373 306.347 225.492 306.774 225.492C307.143 225.492 307.436 225.406 307.653 225.232C307.87 225.051 307.979 224.812 307.979 224.515C307.979 224.204 307.881 223.962 307.686 223.788C307.497 223.614 307.244 223.473 306.926 223.364C306.607 223.256 306.267 223.14 305.905 223.017C305.319 222.814 304.87 222.554 304.559 222.235C304.255 221.917 304.103 221.493 304.103 220.965C304.096 220.516 304.201 220.133 304.418 219.814C304.642 219.488 304.946 219.239 305.33 219.065C305.713 218.884 306.155 218.794 306.654 218.794C307.161 218.794 307.606 218.884 307.99 219.065C308.381 219.246 308.685 219.499 308.902 219.825C309.126 220.151 309.245 220.538 309.26 220.987H307.773C307.765 220.719 307.66 220.484 307.458 220.281C307.262 220.071 306.987 219.966 306.633 219.966C306.329 219.959 306.072 220.035 305.862 220.194C305.659 220.346 305.558 220.57 305.558 220.867C305.558 221.121 305.637 221.323 305.797 221.475C305.956 221.62 306.173 221.743 306.448 221.844C306.723 221.946 307.038 222.054 307.393 222.17C307.769 222.3 308.113 222.452 308.424 222.626C308.735 222.8 308.985 223.031 309.173 223.321C309.361 223.603 309.455 223.969 309.455 224.418C309.455 224.816 309.354 225.185 309.151 225.525C308.949 225.865 308.648 226.14 308.25 226.35C307.852 226.553 307.364 226.654 306.785 226.654Z" fill="#D9D9D9"/>
</svg>
